<svg xmlns="http://www.w3.org/2000/svg" width="106" height="106" fill="none" viewBox="0 0 106 106"><path fill="url(#a)" d="M90.394 62.706a3.344 3.344 0 0 0-2.084-2.283c.014-.275.02-.554.02-.83V23.066a.867.867 0 0 0-.621-.83L56.623 13.13a3.347 3.347 0 0 0-.93-2.77 3.363 3.363 0 0 0-2.374-1.014 3.326 3.326 0 0 0-2.396.957 3.366 3.366 0 0 0-1.017 2.371c0 .152.01.304.028.456l-31.086 9.105a.867.867 0 0 0-.622.83V59.59c0 .226.007.452.014.678a3.356 3.356 0 0 0-2.304 1.625 3.355 3.355 0 0 0-.335 2.558 3.35 3.35 0 0 0 1.568 2.046 3.346 3.346 0 0 0 2.562.336c.007 0 .014-.007.025-.007 2.43 5.82 7.756 11.727 15.925 17.638 5.459 3.95 10.964 6.968 14.239 8.64 0 .045-.007.091-.007.137a3.377 3.377 0 0 0 3.328 3.413h.04a3.373 3.373 0 0 0 3.37-3.328c0-.074-.004-.148-.007-.22 3.275-1.67 8.78-4.684 14.24-8.638 8.122-5.88 13.433-11.752 15.882-17.54.123.014.247.025.37.025.294 0 .587-.039.88-.117a3.344 3.344 0 0 0 2.046-1.572 3.35 3.35 0 0 0 .336-2.558h-.004Zm-2.925-2.48s-.032 0-.05-.004c.014 0 .032 0 .05.004ZM50.348 14.377s-.004-.007-.008-.01l.007.01ZM19.087 60.22h.046-.046Zm1.06 6.47c.021-.011.043-.019.067-.03-.021.011-.042.018-.067.03Zm.424-.21s.007 0 .007-.003c0 0-.007 0-.007.004Zm35.913 25.77s-.01-.029-.014-.047c.003.014.01.029.014.046Zm-.152-.386-.028-.064c.01.022.02.043.028.064Zm-6.091-.035.014-.029c-.004.011-.011.022-.014.029Zm36.128-24.97.152.031c-.053-.01-.103-.017-.152-.031Zm-.41-.127c.067.024.138.049.205.07-.07-.021-.138-.046-.205-.07Z"/><path fill="#fff" d="M53.277 87.948a.632.632 0 0 1-.237-.05c-.07-.031-7.328-3.303-14.483-8.483-9.703-7.02-14.621-14.024-14.621-20.804V27.88c0-.254.17-.48.413-.554l28.765-8.424a.575.575 0 1 1 .322 1.106L25.09 28.313v30.294c0 15.332 28.14 28.112 28.422 28.239.29.13.42.47.29.763a.577.577 0 0 1-.526.343v-.004Z"/><path fill="#fff" d="M48.295 65.692a.864.864 0 0 1-.612-.255L36.19 53.943a.862.862 0 0 1 0-1.222.862.862 0 0 1 1.223 0l10.883 10.883L73.417 38.48a.862.862 0 0 1 1.222 0 .86.86 0 0 1 0 1.223L48.906 65.437a.864.864 0 0 1-.611.255Zm4.982 30.958h-.04a3.373 3.373 0 0 1-3.328-3.412 3.373 3.373 0 0 1 3.371-3.329c.014 0 .043-.01.039 0a3.33 3.33 0 0 1 2.37 1.018c.63.643.97 1.494.958 2.395a3.373 3.373 0 0 1-3.37 3.329Zm0-5.013c-.898 0-1.633.724-1.643 1.622a1.643 1.643 0 0 0 1.621 1.66h.022c.897 0 1.632-.724 1.643-1.621a1.62 1.62 0 0 0-.467-1.166 1.625 1.625 0 0 0-1.155-.495h-.021Zm37.117-28.931a3.344 3.344 0 0 0-1.572-2.046 3.375 3.375 0 0 0-4.604 1.233 3.355 3.355 0 0 0-.336 2.558 3.35 3.35 0 0 0 1.57 2.046 3.343 3.343 0 0 0 2.557.336 3.343 3.343 0 0 0 2.046-1.572c.449-.781.569-1.69.336-2.558l.003.003ZM20.54 60.657a3.375 3.375 0 0 0-4.604 1.233 3.356 3.356 0 0 0-.335 2.558c.233.87.791 1.597 1.568 2.046a3.346 3.346 0 0 0 2.562.335 3.344 3.344 0 0 0 2.046-1.572c.449-.78.569-1.689.336-2.558a3.343 3.343 0 0 0-1.573-2.046v.004Z"/><path fill="#fff" d="M21.268 65.925a3.33 3.33 0 0 1-1.516.897c2.431 5.82 7.756 11.727 15.925 17.639 5.46 3.95 10.964 6.968 14.24 8.639a3.34 3.34 0 0 1 .544-1.668c-7.155-3.682-24.317-13.533-29.193-25.507Zm64.183.572a3.245 3.245 0 0 1-.314-.208c-5.07 11.812-21.953 21.497-29.04 25.143a3.35 3.35 0 0 1 .543 1.668c3.276-1.671 8.78-4.685 14.24-8.636 8.123-5.88 13.434-11.752 15.882-17.54a3.389 3.389 0 0 1-1.31-.427ZM53.28 16.087h-.042a3.337 3.337 0 0 1-2.371-1.017 3.347 3.347 0 0 1-.958-2.396 3.337 3.337 0 0 1 1.018-2.37 3.315 3.315 0 0 1 2.392-.958c.901.01 1.742.37 2.37 1.017.63.643.97 1.495.959 2.396a3.337 3.337 0 0 1-1.018 2.37 3.356 3.356 0 0 1-2.353.958h.003Zm0-5.014a1.63 1.63 0 0 0-1.145.467 1.624 1.624 0 0 0-.494 1.155 1.62 1.62 0 0 0 .466 1.166c.307.315.717.491 1.156.495.452-.007.855-.16 1.166-.466a1.63 1.63 0 0 0 .494-1.156 1.62 1.62 0 0 0-.466-1.166 1.625 1.625 0 0 0-1.156-.495h-.02Z"/><path fill="#fff" d="m19.954 23.712 30.634-8.971a3.327 3.327 0 0 1-.65-1.611l-31.09 9.105a.867.867 0 0 0-.622.83V59.59c0 .226.007.452.014.678a3.363 3.363 0 0 1 1.739.134c-.015-.268-.025-.54-.025-.812V23.712Zm67.755-1.477L56.623 13.13a3.306 3.306 0 0 1-.654 1.611l30.634 8.971v35.874c0 .223-.007.442-.014.664a3.357 3.357 0 0 1 1.724.166c.014-.275.021-.554.021-.83v-36.52a.867.867 0 0 0-.621-.83h-.004Z"/><defs><linearGradient id="a" x1="52.998" x2="52.998" y1="1.813" y2="95.76" gradientUnits="userSpaceOnUse"><stop stop-color="#F0F"/><stop offset="1" stop-color="#D300FF" stop-opacity="0"/></linearGradient></defs></svg>