<svg xmlns="http://www.w3.org/2000/svg" width="106" height="106" fill="none" viewBox="0 0 106 106"><path fill="url(#a)" d="M91.406 52.133a3.367 3.367 0 0 0-2.125-1.618c0-.327-.035-.626-.067-.925l-1.497-9.659a14.034 14.034 0 0 0-.868-3.2 3.456 3.456 0 0 0 .66-4.258 3.367 3.367 0 0 0-2.055-1.602 3.318 3.318 0 0 0-2.302.204 18.352 18.352 0 0 0-2.224-1.806l-10.372-6.833c-.244-1.256-1.183-4.88-4.106-5.404-2.192-.417-9.708.976-17.507 2.511-1.01.209-1.843.35-2.299.453l-16.49-4.228a7.121 7.121 0 0 0-8.003 3.488c-2.298 4.184-3.92 11.245-1.104 16.893a.843.843 0 0 0 .44.401h.004c.04.016.083.028.122.04a.827.827 0 0 0 .31.031c1.215 3.212 4.405 10.93 7.43 12.269.07.035.173.035.244.035.137 0 .279-.07.35-.07.172-.174.243-.418.172-.627-.585-1.861-1.571-5.526-1.929-8.738.06.453.118.91.189 1.382l3.37 1.452c.775 4.318 2.032 9.022 4.008 11.17a.57.57 0 0 0 .417.174c.07 0 .137 0 .243-.07.209-.072.35-.316.35-.56a49.443 49.443 0 0 1 .326-8.474l9.005 3.822c-2.561 1.047-4.9 2.649-7.205 4.235-.417.28-.837.559-1.254.87-1.567 1.047-3.41 2.16-5.5 2.546-2.821.488-5.709-.87-7.728-3.695-1.635-2.268-2.507-5.023-3.375-7.707-.106-.315-.381-.559-.696-.594-.314-.036-.66.07-.837.35-2.436 3.279-2.715 7.88-.836 11.47-1.01.731-1.985 1.499-2.821 2.475-1.18 1.433-1.808 3.07-1.702 4.605.036.315.209.594.452.732a.91.91 0 0 0 .417.106.777.777 0 0 0 .451-.137c2.122-1.291 4.802-2.858 7.485-2.756 1.426.071 2.821.595 4.283 1.114 1.426.524 2.887 1.083 4.455 1.22 1.073.103 2.196.008 3.379-.287-.495.126-.986.225-1.462.288l-3.654 2.613a4.545 4.545 0 0 0-1.74 3.696v.035a4.918 4.918 0 0 0 1.08 2.893c2.055 2.44 4.212 4.046 6.404 4.845l.028-.232a3.55 3.55 0 0 0 .46 1.559 3.367 3.367 0 0 0 2.054 1.602c.28.07.594.106.869.106.593 0 1.182-.173 1.705-.453a3.372 3.372 0 0 0 1.713-2.952c.471-.208.907-.476 1.348-.743l18.096-10.171-3.41 8.742a7.008 7.008 0 0 0 .381 6.065 7.196 7.196 0 0 0 4.907 3.59l14.997 2.853c.035.516.192 1.024.456 1.472a3.426 3.426 0 0 0 4.663 1.256 3.372 3.372 0 0 0 1.6-2.059c.243-.87.105-1.779-.35-2.578a3.375 3.375 0 0 0-1.698-1.468c.09.036.185.067.271.11l5.01-26.764c.463-.051.935-.2 1.36-.43a3.425 3.425 0 0 0 1.252-4.671v-.004Z"/><path fill="#fff" d="M87.509 32.469a3.367 3.367 0 0 0-2.055-1.602 3.316 3.316 0 0 0-2.577.35 3.425 3.425 0 0 0-1.253 4.672 3.426 3.426 0 0 0 4.663 1.256c1.6-.941 2.157-3.035 1.218-4.672l.004-.004Zm-58.297-8.053c.801.559 1.147 1.464 1.08 2.37a2.286 2.286 0 0 0 1.045-.87 2.627 2.627 0 0 0-.624-3.661 2.616 2.616 0 0 0-3.654.626 2.51 2.51 0 0 0-.452 1.29c.837-.381 1.843-.314 2.609.245h-.004Zm59.271 32.842a3.43 3.43 0 0 1-2.958-1.709 3.425 3.425 0 0 1 1.253-4.672c.802-.452 1.705-.594 2.578-.35a3.393 3.393 0 0 1 2.055 1.602 3.425 3.425 0 0 1-1.254 4.672c-.522.28-1.112.453-1.67.453l-.004.004Zm-.035-5.09c-.279 0-.558.071-.837.209a1.621 1.621 0 0 0-.593 2.267 1.615 1.615 0 0 0 2.263.594 1.621 1.621 0 0 0 .593-2.267 1.617 1.617 0 0 0-1.01-.767c-.106 0-.278-.036-.416-.036Zm-49.351 28.17c-.279 0-.593-.035-.868-.106a3.403 3.403 0 0 1-2.055-1.602c-.456-.8-.593-1.708-.35-2.582a3.407 3.407 0 0 1 1.6-2.059c.8-.452 1.704-.594 2.577-.35a3.392 3.392 0 0 1 2.054 1.602c.456.799.594 1.708.35 2.582a3.396 3.396 0 0 1-1.599 2.059c-.523.279-1.112.452-1.705.452l-.004.004Zm0-5.09c-.279 0-.558.072-.837.21a1.62 1.62 0 0 0-.766 1.011c-.106.417-.07.87.173 1.256.208.381.593.66 1.01.767.416.106.868.071 1.253-.173a1.62 1.62 0 0 0 .766-1.012c.106-.417.07-.87-.173-1.255a1.617 1.617 0 0 0-1.01-.768c-.137 0-.279-.035-.416-.035Zm43.438 6.141c-.617-.008-1.226-.079-1.917-.177-2.33-.28-5.257-.661-11.276 1.185a23.91 23.91 0 0 1-3.112.743l2.872.548c.197-.056.389-.11.59-.174 5.81-1.743 8.56-1.393 10.788-1.114.613.087 1.214.17 1.835.19l.224-1.201h-.004Zm2.675 3.971a3.412 3.412 0 0 0-4.663-1.255 3.371 3.371 0 0 0-1.6 2.058 3.335 3.335 0 0 0 .35 2.582 3.426 3.426 0 0 0 4.664 1.256 3.371 3.371 0 0 0 1.6-2.059c.243-.87.105-1.779-.35-2.582ZM62.588 51.263c.07-.035.137-.106.208-.173l-.208.173ZM38.853 61.406c1.01-.523 1.984-1.15 2.959-1.744 2.644-1.602 5.359-3.278 8.388-3.59a6.505 6.505 0 0 1 3.273.453l1.461-1.22c-1.532-.838-3.202-1.149-4.942-.976-3.446.382-6.334 2.126-9.12 3.834-.938.559-1.913 1.15-2.852 1.673-2.365 1.255-4.384 1.814-6.23 1.637-1.325-.106-2.61-.594-4.004-1.114-1.533-.559-3.096-1.15-4.802-1.256-2.542-.106-4.871.941-6.89 2.059.278-.767.73-1.358 1.044-1.744.868-1.047 2.02-1.846 3.167-2.648.381-.28.487-.803.244-1.185-1.6-2.511-1.776-5.892-.594-8.612.731 2.196 1.6 4.392 3.03 6.345 2.4 3.314 6.018 4.986 9.464 4.392 2.365-.417 4.456-1.637 6.16-2.79.417-.28.838-.56 1.254-.87 4.141-2.826 8.039-5.51 13.017-5.054 2.542.209 5.013.94 7.484 1.814l1.568-1.29c-2.923-1.048-5.811-1.988-8.911-2.268-5.603-.488-9.92 2.476-14.128 5.369-.417.28-.837.559-1.254.87-1.567 1.047-3.41 2.16-5.5 2.546-2.821.488-5.709-.87-7.728-3.695-1.635-2.268-2.507-5.023-3.375-7.707-.106-.315-.381-.559-.696-.594-.314-.036-.66.07-.837.35-2.436 3.279-2.715 7.88-.836 11.47-1.01.731-1.985 1.499-2.821 2.475-1.18 1.433-1.808 3.07-1.702 4.605.036.315.209.594.452.732a.91.91 0 0 0 .417.106.777.777 0 0 0 .451-.137c2.122-1.291 4.802-2.858 7.485-2.756 1.426.071 2.821.595 4.283 1.114 1.426.524 2.887 1.083 4.455 1.22 2.157.21 4.526-.381 7.17-1.814h-.004Zm44.762 14.189c-1.26.319-2.282.193-3.52.036-2.298-.28-5.115-.662-10.997 1.149-4.734 1.464-6.993.905-8.074.173-.558-.374-.848-.815-.994-1.157a5.425 5.425 0 0 0-.247 1.618c.169.165.357.33.581.48.94.626 2.157.94 3.69.94 1.532 0 3.339-.314 5.358-.94 5.638-1.744 8.353-1.394 10.51-1.114 1.175.165 2.224.28 3.462.055l.231-1.244v.004Zm-3.453-16.81c-1.587-.177-3.685-.339-6.412.047a21.3 21.3 0 0 1-1.921 1.531c4.047-.949 6.942-.586 8.89-.35l-.557-1.228Zm2.287 5.758a15.397 15.397 0 0 1-1.764-.173c-2.33-.28-5.257-.661-11.276 1.185-2.31.712-4.24 1.023-5.78.92l-.448 1.15c.315.035.649.055 1.006.055 1.532 0 3.41-.315 5.567-1.012 5.811-1.743 8.561-1.393 10.79-1.113.718.098 1.421.196 2.152.196a17.6 17.6 0 0 0-.251-1.208h.004Zm.636 5.64c-.774.047-1.516-.04-2.361-.161-2.263-.28-5.116-.661-10.997 1.185-4.53 1.4-6.829.964-8.011.204l-.433 1.114c.778.441 1.87.776 3.399.776 1.39 0 3.167-.28 5.394-1.012 5.638-1.744 8.353-1.393 10.51-1.114.869.122 1.69.24 2.566.181l-.067-1.169v-.004ZM22.289 24.416a2.17 2.17 0 0 1 2.157.28 2.42 2.42 0 0 0-.138-1.115c-.286-.72-.923-1.18-1.638-1.306a21 21 0 0 0-.739 2.345c.114-.078.232-.145.358-.204Z"/><path fill="#fff" d="M87.474 49.901c.035.244.07.488.07.697a3.315 3.315 0 0 1 1.74-.036c0-.35-.035-.66-.07-.976l-1.497-9.659a14.113 14.113 0 0 0-.868-3.207 3.58 3.58 0 0 1-.593.452c-.315.173-.625.315-.975.382.315.87.558 1.744.696 2.684l1.497 9.66v.003Zm-.381 7.046-2.334 12.532-.102-1.795a19.147 19.147 0 0 0-1.706-6.94l-5.111-11.26 1.666-5.577a.857.857 0 0 0-.558-1.114c-.452-.138-.94.138-1.08.594l-1.725 5.766a.9.9 0 0 0-.09.303L74.28 55.38c-.66 2.196-6.333 5.577-9.743 7.219-.036 0-.036.035-.071.035l-21.44 12.064c-.036 0-.036.035-.07.035a6.59 6.59 0 0 1-.94.524 3.48 3.48 0 0 1 .452 1.708c.487-.209.939-.488 1.39-.768l18.097-10.17-3.41 8.742a7.008 7.008 0 0 0 .381 6.065 7.196 7.196 0 0 0 4.907 3.59L78.87 87.28c0-.35 0-.732.106-1.082.071-.209.138-.418.209-.595l-15.036-2.857c-1.6-.315-2.923-1.291-3.725-2.72a5.473 5.473 0 0 1-.279-4.601l4.106-10.564c.02-.051.031-.102.043-.154l.967-.543c1.111-.523 9.57-4.636 10.65-8.261l1.164-3.893 4.302 9.474a17.981 17.981 0 0 1 1.568 6.31l.487 8.682s.004.031.008.047l-1.332 7.136c.558-.035 1.147.106 1.67.35l5.013-26.776a3.15 3.15 0 0 1-1.705-.28l.008-.007ZM30.642 71.273a3.251 3.251 0 0 1-.354-.558h4.15c3.028 0 5.951-1.047 8.317-3l21.404-17.747c.66-.559 1.046-1.429.94-2.302a2.72 2.72 0 0 0-1.391-2.059C36.696 31.355 34.818 31.981 34.19 32.19c-1.356.453-2.888.315-4.664.138-1.045-.07-2.157-.173-3.308-.173-2.016.02-3.36.976-4.169 1.846-1.65-4.759-.279-10.446 1.627-13.945a5.37 5.37 0 0 1 6.019-2.65l16.635 4.291a.589.589 0 0 0 .35 0c.416-.07 1.324-.244 2.542-.488 4.384-.87 14.686-2.928 16.843-2.511 1.383.264 2.118 1.9 2.475 3.086-4.514-.85-19.723 2.601-20.399 2.739a.59.59 0 0 0-.451.697c.035.28.278.452.557.452.036 0 .106-.035.138.036a166.83 166.83 0 0 1 4.22-.898.822.822 0 0 0 .235.374l3.096 2.929c1.01.976 2.436 1.464 3.862 1.464 1.29 0 2.61-.382 3.619-1.22l5.783-4.731s.02.02.032.027l10.682 7.042c.66.452 1.29.94 1.843 1.464.314-.35.66-.661 1.112-.94.106-.036.173-.107.279-.139a18.823 18.823 0 0 0-2.228-1.814l-10.372-6.833c-.244-1.255-1.183-4.88-4.106-5.404-2.192-.417-9.708.976-17.507 2.511-1.01.209-1.843.35-2.299.453l-16.481-4.224a7.121 7.121 0 0 0-8.004 3.488c-2.298 4.184-3.92 11.245-1.104 16.893a.843.843 0 0 0 .44.401h.004c.04.016.083.028.122.04a.815.815 0 0 0 .307.031c1.214 3.212 4.404 10.93 7.43 12.269.07.035.172.035.243.035.137 0 .279-.07.35-.07.172-.174.243-.418.172-.627-.585-1.861-1.571-5.526-1.929-8.738.06.453.118.91.189 1.382l3.37 1.452c.775 4.318 2.032 9.022 4.008 11.17a.57.57 0 0 0 .417.174c.07 0 .137 0 .243-.07.209-.072.35-.316.35-.56a49.464 49.464 0 0 1 .326-8.474l9.037 3.838c.801-.315 1.67-.595 2.542-.803l-11.3-4.814c.55-2.972 1.513-5.636 3.14-6.774 4.49 2.004 11.708 5.538 22.359 11.17a.898.898 0 0 1 .452.697.857.857 0 0 1-.315.768L41.6 66.393a11.24 11.24 0 0 1-7.17 2.582h-4.46a2.789 2.789 0 0 1 1.014-1.78l9.119-6.517-1.254.732c-1.878 1.012-3.618 1.602-5.256 1.815l-3.654 2.613a4.545 4.545 0 0 0-1.74 3.696v.035a4.917 4.917 0 0 0 1.08 2.893c2.054 2.44 4.211 4.046 6.404 4.845-.036-.66.07-1.29.314-1.814-2.086-.838-3.933-2.511-5.359-4.22h.004Zm31.67-44.28c-1.425 1.15-3.897 1.083-5.185-.137l-2.566-2.428c4.746-.902 10.066-1.713 12.84-1.575l-5.088 4.14Zm-33.83 19.772c-2.145-2.432-4.518-7.958-5.642-10.97.417-.617 1.49-1.869 3.383-1.892.432-.016.86 0 1.288.023-1.465 3.035.071 9.604.975 12.843l-.004-.004Zm-.354-7.903c-.18-2.106-.05-3.944.696-4.837a60.931 60.931 0 0 0 1.87.169 91.72 91.72 0 0 0 .711 6.077l-3.28-1.41h.003Zm7.454 12.296c-2.433-4.582-3.434-13.977-3.69-16.917.951.008 1.878-.079 2.786-.378.491-.012 1.976.476 4.66 1.633-3.442 3.177-3.815 11.73-3.753 15.658l-.004.004Z"/><defs><linearGradient id="a" x1="52.999" x2="52.999" y1="22.295" y2="83.947" gradientUnits="userSpaceOnUse"><stop stop-color="#D0D702"/><stop offset="1" stop-color="#72E400" stop-opacity="0"/></linearGradient></defs></svg>