<svg xmlns="http://www.w3.org/2000/svg" width="106" height="106" fill="none" viewBox="0 0 106 106"><path fill="url(#a)" d="M90.177 47.518c-3.851-7.749-13.543-10.317-15.09-10.685-.17-1.378-1.036-5.098-5.354-8.073a3.19 3.19 0 0 0-3.078-4.01c-.766 0-1.473.271-2.024.727-3.151-1.979-8.787-4.742-15.631-4.742-5.42 0-9.798 1.092-14.031 2.145-3.784.944-7.36 1.834-11.342 1.834h-.12a.817.817 0 0 0-.42 1.52l4.579 2.745c-1.053 1.162-4.23 4.006-12.933 8.547a.813.813 0 0 0-.41.94.828.828 0 0 0 .835.6l8.14-.434c-.335 2.67-1.706 10.571-6.639 15.907a.818.818 0 0 0 .844 1.336l4.559-1.425c.583 1.368 1.883 4.806 2.2 8.851.46 5.802-1.19 10.501-4.89 14.02a3.166 3.166 0 0 0-1.904-.639 3.19 3.19 0 0 0-3.187 3.187 3.192 3.192 0 0 0 3.187 3.187 3.193 3.193 0 0 0 2.982-2.067c5.29.332 11.558-.49 18.695-2.47a93.829 93.829 0 0 0 10.424-3.561c1.477 2.381 7.257 10.31 18.762 10.307 2.738 0 5.805-.453 9.215-1.534a3.192 3.192 0 0 0 2.604 1.353 3.19 3.19 0 0 0 3.187-3.187 3.192 3.192 0 0 0-3.187-3.187 3.18 3.18 0 0 0-1.527.389c-3.106-3.056-8.275-9.045-8.391-15.151-.06-3.194 1.293-6.07 4.031-8.558 3.078.47 8.975 1.6 10.618 1.919l2.823 6.893c.124.3.413.499.735.51a.82.82 0 0 0 .76-.47c2.989-6.389 3.317-12.018.978-16.728v.004ZM69.42 29.523l-.018.028c.007-.01.01-.018.018-.028Zm-.209.314-.045.064c.017-.021.031-.043.045-.064Zm-4.858-4.098a.917.917 0 0 1-.056.06.356.356 0 0 1 .056-.06ZM20.535 80.735s0-.01.004-.014c0 .003 0 .01-.004.014Zm.064-.269a.475.475 0 0 1 .014-.08c-.004.027-.007.056-.014.08Zm.042-.282a2.87 2.87 0 0 0 .014-.304c0 .102-.007.201-.014.304Zm-.675-2.28v.004-.003Zm.216.312c.01.017.025.038.035.056-.01-.018-.021-.039-.035-.056Zm43.902-52.152-.022.031.022-.031Zm13.882 53.523s-.014.014-.021.017a.094.094 0 0 1 .021-.017Zm.332-.273a.918.918 0 0 0-.063.05c.02-.018.042-.032.063-.05ZM50.64 73.566Zm21.2-18.049Zm-.395.467c.017-.025.038-.046.06-.07-.022.024-.04.045-.06.07Zm14.56-.004Z"/><path fill="#fff" d="M57.607 34.855a2.303 2.303 0 0 1 1.742-.94l.19-.347a23.556 23.556 0 0 0-2.716-.745 4.284 4.284 0 0 0-.95 1.021l1.14.01.594.997v.004Zm3.795.127h1.116l.04-.067a16.92 16.92 0 0 0-2.69-1.23l-.138.244a2.303 2.303 0 0 1 1.672 1.053Zm.357 1.229c0 .393-.1.764-.272 1.085l.569.965.925.01.329-.17a4.26 4.26 0 0 0 .413-2.44 12.254 12.254 0 0 0-.865-.577l-.142.233h-1.13c.113.276.176.573.176.887l-.003.007ZM59.995 70.29c1.131-.145 2.41-.31 3.633-2.049a.545.545 0 1 0-.894-.625c-.947 1.346-1.841 1.462-2.88 1.593-1.208.156-2.58.332-3.88 2.424a.541.541 0 0 0 .463.83.54.54 0 0 0 .463-.258c1.025-1.653 1.983-1.773 3.092-1.918l.004.003Zm7.837-.095a.545.545 0 1 0-.893-.625c-1.403 1.996-2.725 2.166-4.251 2.363-1.668.216-3.562.46-5.35 3.34a.541.541 0 0 0 .463.83c.184 0 .36-.092.463-.258 1.516-2.442 2.926-2.622 4.562-2.834 1.558-.201 3.325-.427 5.003-2.816h.003ZM65.811 74.7c-1.162.148-2.48.318-3.727 2.328a.541.541 0 0 0 .463.83.54.54 0 0 0 .462-.257c.976-1.569 1.884-1.686 2.94-1.823 1.085-.138 2.314-.297 3.491-1.968a.545.545 0 1 0-.894-.626c-.897 1.28-1.749 1.389-2.735 1.516Zm-6.077-8.696a.541.541 0 0 0 .463.83c.184 0 .36-.091.463-.257.975-1.569 1.887-1.686 2.94-1.823 1.084-.138 2.314-.297 3.487-1.968a.545.545 0 1 0-.894-.626c-.897 1.28-1.749 1.389-2.735 1.516-1.162.148-2.48.318-3.727 2.328h.003Zm8.643 11.968a.544.544 0 0 0-.76.13c-.633.898-1.205.972-1.933 1.068-.848.11-1.904.243-2.865 1.795a.541.541 0 0 0 .462.83c.184 0 .36-.092.463-.258.69-1.11 1.3-1.187 2.078-1.286.791-.103 1.777-.23 2.685-1.52a.547.547 0 0 0-.13-.76ZM57.47 63.884a.541.541 0 0 0 .749-.177c.688-1.109 1.303-1.187 2.08-1.285.792-.103 1.778-.23 2.686-1.52a.545.545 0 1 0-.894-.625c-.633.897-1.205.972-1.933 1.063-.848.11-1.904.244-2.866 1.795a.541.541 0 0 0 .177.75Z"/><path fill="#fff" d="M43.813 32.42a56.35 56.35 0 0 1 5.3-.293.797.797 0 0 0 .155.314l4.922 6.063a6.909 6.909 0 0 0 8.487 1.774l3.753-1.932a.82.82 0 0 0 .353-1.103.798.798 0 0 0-.212-.258c-.382-.646-4.869-7.476-22.864-5.646a.546.546 0 0 0-.488.597c.032.3.286.512.597.488l-.003-.004Zm21.479 4.668-2.961 1.523-.477-.008-.58-.985a2.3 2.3 0 0 1-1.727.89l-.47.866a5.433 5.433 0 0 0-.368-.043l.456-.837a2.306 2.306 0 0 1-1.643-1.039l-1.159.028-.335.587c.08.074.166.141.25.208a5.07 5.07 0 0 1-.508-.448l.392-.682 1.18-.029a2.314 2.314 0 0 1 .056-1.926l-.586-.989-1.148-.01a4.298 4.298 0 0 0-.506 2.024c0 .368.05.721.138 1.064l.16.198-4.319-5.318c9.417.364 13.099 3.696 14.151 4.936l.004-.01Zm-3.745 1.908c-.05.02-.096.035-.145.056.05-.017.095-.035.145-.056Zm-.386.141a3.808 3.808 0 0 1-.187.056c.064-.017.127-.035.188-.056Zm-.378.106Zm-2.07.085Zm-1.774-.615Zm-6.116 15.911c.29.01.562-.209.58-.51a.543.543 0 0 0-.51-.579c-1.105-.07-2.123.304-3.03 1.12-3.032 2.725-4.206 9.943-4.644 14.169l-3.473-12.883a.55.55 0 0 0-.668-.385.547.547 0 0 0-.385.668l1.06 3.933c-1.286 2.293-5.205 6.82-7.477 9.367 1.103-4.905 1.12-12.865 1.11-14.561 1.791-.251 4.067-.799 6.883-1.894a.545.545 0 1 0-.396-1.018c-5.6 2.173-8.94 2.11-10.43 1.88l5.614-4.791a.547.547 0 0 0-.71-.83l-6.417 5.476a.548.548 0 0 0 .124.912c.074.035 1 .438 2.947.438.389 0 .82-.018 1.29-.057.003 2.22-.064 12.735-1.781 16.427a.545.545 0 0 0 .894.597c.279-.304 6.275-6.816 8.73-10.508l2.852 10.572c.064.24.283.402.527.402h.06a.546.546 0 0 0 .484-.52c.007-.13.561-13.023 4.526-16.588.689-.622 1.42-.898 2.23-.841l.01.004Zm24.101-9.565c.78.293 1.71-.251 2.074-1.22.364-.967.028-1.989-.753-2.285a1.304 1.304 0 0 0-.844-.014c.4.325.526 1.014.272 1.685-.286.756-.947 1.208-1.509 1.053.149.357.403.643.756.777l.004.004Z"/><path fill="#fff" d="M90.177 47.518c-3.851-7.749-13.543-10.317-15.09-10.685-.17-1.378-1.036-5.098-5.354-8.073a3.19 3.19 0 0 0-3.078-4.01c-.766 0-1.473.271-2.024.727-3.151-1.979-8.787-4.742-15.631-4.742-5.42 0-9.798 1.092-14.031 2.145-3.784.944-7.36 1.834-11.342 1.834h-.12a.817.817 0 0 0-.42 1.52l4.579 2.745c-1.053 1.162-4.23 4.006-12.933 8.547a.813.813 0 0 0-.41.94.828.828 0 0 0 .835.6l8.14-.434c-.335 2.67-1.706 10.571-6.639 15.907a.818.818 0 0 0 .844 1.336l4.559-1.425c.583 1.368 1.883 4.806 2.2 8.851.46 5.802-1.19 10.501-4.89 14.02a3.166 3.166 0 0 0-1.904-.639 3.19 3.19 0 0 0-3.187 3.187 3.192 3.192 0 0 0 3.187 3.187 3.193 3.193 0 0 0 2.982-2.067c5.29.332 11.558-.49 18.695-2.47a93.829 93.829 0 0 0 10.424-3.561c1.477 2.381 7.257 10.31 18.762 10.307 2.738 0 5.805-.453 9.215-1.534a3.192 3.192 0 0 0 2.604 1.353 3.19 3.19 0 0 0 3.187-3.187 3.192 3.192 0 0 0-3.187-3.187 3.18 3.18 0 0 0-1.527.389c-3.106-3.056-8.275-9.045-8.391-15.151-.06-3.194 1.293-6.07 4.031-8.558 3.078.47 8.975 1.6 10.618 1.919l2.823 6.893c.124.3.413.499.735.51a.82.82 0 0 0 .76-.47c2.989-6.389 3.317-12.018.978-16.728v.004ZM69.42 29.523l-.018.028c.007-.01.01-.018.018-.028Zm-.209.314-.045.064c.017-.021.031-.043.045-.064Zm-4.858-4.098a.917.917 0 0 1-.056.06.356.356 0 0 1 .056-.06ZM17.465 81.43a1.555 1.555 0 1 1 0-3.11 1.555 1.555 0 0 1 0 3.11Zm3.067-.696s0-.01.003-.014c0 .003 0 .01-.003.014Zm.063-.269a.559.559 0 0 1 .014-.08.548.548 0 0 1-.014.08Zm.043-.282a2.87 2.87 0 0 0 .014-.304c0 .102-.007.201-.014.304Zm.014-.304Zm-.046-.505a3.049 3.049 0 0 0-.22-.757c10.438-9.805 2.93-25.351 2.849-25.52a.817.817 0 0 0-.976-.418l-2.67.834c4.79-6.742 5.405-15.292 5.43-15.691a.829.829 0 0 0-.233-.63.817.817 0 0 0-.626-.24l-5.459.29c9.297-5.205 10.76-7.833 10.904-8.144a.815.815 0 0 0-.318-1.05l-3.028-1.816c3.138-.279 6.053-1.003 9.102-1.763 4.138-1.032 8.413-2.099 13.635-2.099 6.332 0 11.667 2.597 14.674 4.456-.13.346-.205.72-.205 1.113a3.19 3.19 0 0 0 3.187 3.187c.884 0 1.682-.36 2.262-.944 4.074 2.866 4.522 6.385 4.572 7.088-2.802 1.792-2.852 6.502-2.753 8.367L53.18 48.85a1.332 1.332 0 0 0-1.28 1.212 1.338 1.338 0 0 0 1.1 1.48l19.253 3.506c-1.382.82-5.972 2.855-17.275 2.628a.495.495 0 0 0-.427.195.545.545 0 0 0-.117.456c.021.098 1.89 10.013-4.752 14.825-.036.011-.071.018-.103.032-.17.074-15.939 6.964-28.97 6.187l-.003.004Zm-.647-1.47v.003-.003Zm.216.31.035.057c-.01-.018-.021-.039-.035-.056Zm43.909-52.151-.022.031.022-.031Zm13.882 53.523s-.014.014-.021.017a.094.094 0 0 1 .021-.017Zm.332-.273a.918.918 0 0 0-.063.05c.02-.018.042-.032.063-.05Zm-.869.937a3.157 3.157 0 0 0-.456 1.96c-18.267 5.778-25.655-7.36-26.295-8.575.014.029.032.06.053.096 5.827-4.583 5.215-12.593 4.883-14.96 7.947.099 12.568-.908 15.116-1.83-1.467 2.14-2.187 4.497-2.134 7.045.13 6.72 5.543 13.03 8.833 16.257v.007Zm-26.786-6.685Zm21.2-18.049Zm-.396.467c.018-.025.039-.046.06-.07l-.06.07Zm2.689-2.262L54.83 50.207l16.924-3.095a.816.816 0 0 0 .665-.898c-.007-.067-.665-6.508 2.35-7.773 1.12.279 6.225 1.696 10.228 5.148-.19-.166-.385-.325-.583-.484l-5.109.378a.549.549 0 0 0-.477.371c-.784 2.357-2.123 5.017-2.936 5.29l-7.621.614a.546.546 0 0 0 .046 1.088h.042s7.399-.597 7.462-.604c.163-.01.438.17.615.226.18.057.36.117.54.177.52.177 1.036.367 1.541.576 1.329.537 2.633 1.17 3.82 1.982a9.94 9.94 0 0 1 1.395 1.127 6.465 6.465 0 0 1 .817.965c.031.046.155.318.201.325-2.173-.417-7.84-1.495-10.61-1.898h-.004Zm11.868 2.258Zm2.474 5.806-2.255-5.505a.803.803 0 0 0-.095-.17c-1.053-3.636-6.816-5.851-8.996-6.568 1.212-1.265 2.226-3.898 2.615-5.004l5.833-.43a18.854 18.854 0 0 0-.565-.51c1.463 1.266 2.78 2.799 3.7 4.65 1.893 3.816 1.812 8.364-.237 13.54v-.003Z"/><defs><linearGradient id="a" x1="52.999" x2="52.999" y1="22.248" y2="90.713" gradientUnits="userSpaceOnUse"><stop stop-color="#FF6C5F"/><stop offset=".09" stop-color="#FE6D5C" stop-opacity=".97"/><stop offset=".22" stop-color="#FD7255" stop-opacity=".89"/><stop offset=".37" stop-color="#FA794A" stop-opacity=".76"/><stop offset=".55" stop-color="#F7843B" stop-opacity=".58"/><stop offset=".75" stop-color="#F39227" stop-opacity=".34"/><stop offset=".96" stop-color="#EEA210" stop-opacity=".06"/><stop offset="1" stop-color="#EDA60B" stop-opacity="0"/></linearGradient></defs></svg>