<svg xmlns="http://www.w3.org/2000/svg" width="106" height="106" fill="none" viewBox="0 0 106 106"><path fill="url(#a)" d="M79.12 88.985a3.637 3.637 0 0 0-1.707-2.222 3.669 3.669 0 0 0-5.004 1.339 3.636 3.636 0 0 0-.363 2.777 3.638 3.638 0 0 0 1.706 2.223 3.65 3.65 0 0 0 2.777.364 3.637 3.637 0 0 0 2.223-1.707 3.653 3.653 0 0 0 .367-2.777v.003Z"/><path fill="url(#b)" d="M32.264 12.898a3.669 3.669 0 0 0-5.003 1.34A3.669 3.669 0 0 0 28.6 19.24a3.662 3.662 0 0 0 5-1.34 3.669 3.669 0 0 0-1.34-5.003h.004Z"/><path fill="url(#c)" d="M90.73 77.816a3.667 3.667 0 0 1-3.618-3.706 3.68 3.68 0 0 1 3.706-3.618 3.67 3.67 0 0 1 3.618 3.706 3.666 3.666 0 0 1-3.66 3.618h-.046Z"/><path fill="url(#d)" d="M81.027 76.368a36.332 36.332 0 0 0 8.47-22.95.932.932 0 0 0 .102-.416.921.921 0 0 0-.102-.417 36.315 36.315 0 0 0-7.851-22.175v-.007a.936.936 0 0 0-.202-.251c-6.699-8.325-16.96-13.664-28.45-13.664-11.49 0-21.755 5.343-28.45 13.664a.942.942 0 0 0-.202.25v.008c-4.915 6.222-7.862 14.066-7.862 22.592 0 8.526 3.184 17.01 8.463 23.345a.914.914 0 0 0 .208.24c6.703 7.9 16.695 12.928 27.843 12.928 11.147 0 21.168-5.042 27.87-12.96a.826.826 0 0 0 .163-.187Z"/><path fill="url(#e)" d="M15.247 35.508h-.046a3.629 3.629 0 0 1-2.575-1.102 3.65 3.65 0 0 1-1.043-2.6 3.629 3.629 0 0 1 1.103-2.576c.7-.682 1.607-1.04 2.6-1.043.979.01 1.894.403 2.576 1.103a3.65 3.65 0 0 1 1.042 2.6 3.629 3.629 0 0 1-1.102 2.576 3.64 3.64 0 0 1-2.555 1.042Z"/><path fill="url(#f)" d="M52.997 8.786A44.16 44.16 0 0 0 33.07 13.53c.45.466.76 1.035.912 1.643a42.265 42.265 0 0 1 19.016-4.509c23.345 0 42.337 18.992 42.337 42.337a42.345 42.345 0 0 1-3.816 17.571c.636.13 1.208.431 1.678.845a44.17 44.17 0 0 0 4.017-18.416c-.003-24.38-19.84-44.216-44.216-44.216Z"/><path fill="url(#g)" d="M72.046 90.88c-.008-.022-.008-.043-.015-.064a42.306 42.306 0 0 1-19.037 4.519c-23.345 0-42.337-18.992-42.337-42.337a42.345 42.345 0 0 1 3.816-17.571 4.037 4.037 0 0 1-.417-.117c-.031-.01-.063-.02-.091-.035a3.235 3.235 0 0 1-.343-.148 3.514 3.514 0 0 1-.816-.555A44.17 44.17 0 0 0 8.78 52.998c0 24.38 19.836 44.216 44.216 44.216a44.146 44.146 0 0 0 19.942-4.752 3.648 3.648 0 0 1-.89-1.583h-.003Z"/><path fill="#fff" d="M79.12 88.985a3.637 3.637 0 0 0-1.707-2.222 3.669 3.669 0 0 0-5.004 1.339 3.636 3.636 0 0 0-.363 2.777 3.638 3.638 0 0 0 1.706 2.223 3.65 3.65 0 0 0 2.777.364 3.637 3.637 0 0 0 2.223-1.707 3.653 3.653 0 0 0 .367-2.777v.003ZM32.264 12.898a3.669 3.669 0 0 0-5.003 1.34A3.669 3.669 0 0 0 28.6 19.24a3.662 3.662 0 0 0 5-1.34 3.669 3.669 0 0 0-1.34-5.003h.004ZM90.73 77.816a3.667 3.667 0 0 1-3.618-3.706 3.68 3.68 0 0 1 3.706-3.618 3.67 3.67 0 0 1 3.618 3.706 3.666 3.666 0 0 1-3.66 3.618h-.046Zm.042-5.445a1.786 1.786 0 0 0-1.279 3.029 1.77 1.77 0 0 0 1.255.537h.02c.976 0 1.77-.785 1.785-1.76a1.788 1.788 0 0 0-1.763-1.806h-.021.003Zm-9.745 3.997a36.332 36.332 0 0 0 8.47-22.95.932.932 0 0 0 .102-.416.921.921 0 0 0-.102-.417 36.315 36.315 0 0 0-7.851-22.175v-.007a.936.936 0 0 0-.202-.251c-6.699-8.325-16.96-13.664-28.45-13.664-11.49 0-21.755 5.343-28.45 13.664a.942.942 0 0 0-.202.25v.008c-4.915 6.222-7.862 14.066-7.862 22.592 0 8.526 3.184 17.01 8.463 23.345a.914.914 0 0 0 .208.24c6.703 7.9 16.695 12.928 27.843 12.928 11.147 0 21.168-5.042 27.87-12.96a.826.826 0 0 0 .163-.187ZM52.994 68.95c-5.3 0-10.498.587-15.342 1.693-1.505-4.919-2.399-10.618-2.484-16.702h35.644c-.084 6.084-.978 11.783-2.483 16.702-4.845-1.106-10.039-1.693-15.342-1.693h.007Zm14.755 3.484c-3.212 9.17-8.628 15.204-14.755 15.204-6.127 0-11.544-6.035-14.755-15.204 4.657-1.05 9.653-1.604 14.755-1.604s10.098.555 14.755 1.604ZM18.385 53.938h14.91c.085 6.222 1.015 12.06 2.583 17.137-3.54.918-6.861 2.127-9.868 3.6a34.44 34.44 0 0 1-7.625-20.737Zm7.066-21.903c3.078 1.562 6.495 2.84 10.152 3.812-1.403 4.859-2.223 10.367-2.304 16.215H18.385a34.462 34.462 0 0 1 7.066-20.027Zm27.546 6.007c5.413 0 10.7-.608 15.618-1.753 1.339 4.7 2.127 10.067 2.208 15.77H35.172c.078-5.707.869-11.07 2.208-15.77 4.915 1.145 10.204 1.753 15.617 1.753ZM37.935 34.49c3.166-9.685 8.734-16.13 15.062-16.13 6.329 0 11.897 6.445 15.063 16.13-4.738 1.095-9.837 1.67-15.063 1.67-5.225 0-10.328-.579-15.062-1.67Zm34.764 17.567c-.081-5.847-.9-11.356-2.303-16.214 3.653-.968 7.073-2.247 10.15-3.813a34.453 34.453 0 0 1 7.067 20.027H72.7Zm0 1.88h14.91a34.44 34.44 0 0 1-7.624 20.737c-3.007-1.473-6.328-2.682-9.869-3.6 1.57-5.078 2.498-10.915 2.583-17.137Zm6.636-23.394c-2.887 1.43-6.081 2.607-9.494 3.509-2.19-6.657-5.502-11.915-9.441-14.883 7.508 1.643 14.108 5.724 18.931 11.374h.004ZM45.592 19.17c-3.94 2.968-7.25 8.226-9.442 14.883-3.41-.901-6.603-2.078-9.494-3.51 4.823-5.649 11.424-9.73 18.932-11.373h.004ZM27.26 76.156c2.816-1.34 5.91-2.445 9.204-3.293 2.187 6.222 5.367 11.137 9.123 13.97A34.65 34.65 0 0 1 27.26 76.156ZM60.4 86.833c3.756-2.83 6.936-7.745 9.123-13.97 3.293.848 6.388 1.954 9.204 3.293A34.65 34.65 0 0 1 60.4 86.833ZM15.247 35.508h-.046a3.629 3.629 0 0 1-2.575-1.102 3.65 3.65 0 0 1-1.043-2.6 3.629 3.629 0 0 1 1.103-2.576c.7-.682 1.607-1.04 2.6-1.043.979.01 1.894.403 2.576 1.103a3.65 3.65 0 0 1 1.042 2.6 3.629 3.629 0 0 1-1.102 2.576 3.64 3.64 0 0 1-2.555 1.042Zm0-5.445a1.78 1.78 0 0 0-1.78 1.76c-.008.477.173.926.505 1.268.332.34.777.534 1.254.538a1.8 1.8 0 0 0 1.268-.506c.34-.332.534-.777.538-1.254a1.772 1.772 0 0 0-.506-1.269 1.752 1.752 0 0 0-1.254-.537h-.025Z"/><path fill="#fff" d="M52.997 8.786A44.16 44.16 0 0 0 33.07 13.53c.45.466.76 1.035.912 1.643a42.265 42.265 0 0 1 19.016-4.509c23.345 0 42.337 18.992 42.337 42.337a42.345 42.345 0 0 1-3.816 17.571c.636.13 1.208.431 1.678.845a44.17 44.17 0 0 0 4.017-18.416c-.003-24.38-19.84-44.216-44.216-44.216ZM72.046 90.88c-.008-.022-.008-.043-.015-.064a42.306 42.306 0 0 1-19.037 4.519c-23.345 0-42.337-18.992-42.337-42.337a42.345 42.345 0 0 1 3.816-17.571 4.037 4.037 0 0 1-.417-.117c-.031-.01-.063-.02-.091-.035a3.235 3.235 0 0 1-.343-.148 3.514 3.514 0 0 1-.816-.555A44.17 44.17 0 0 0 8.78 52.998c0 24.38 19.836 44.216 44.216 44.216a44.146 44.146 0 0 0 19.942-4.752 3.648 3.648 0 0 1-.89-1.583h-.003Z"/><defs><linearGradient id="a" x1="53.012" x2="53.012" y1="-938.496" y2="64.347" gradientUnits="userSpaceOnUse"><stop stop-color="#00FFFC"/><stop offset="1" stop-color="#00ADA3" stop-opacity="0"/></linearGradient><linearGradient id="b" x1="53.04" x2="53.04" y1="-46.138" y2="956.221" gradientUnits="userSpaceOnUse"><stop stop-color="#00FFFC"/><stop offset="1" stop-color="#00ADA3" stop-opacity="0"/></linearGradient><linearGradient id="c" x1="52.976" x2="52.976" y1="-747.327" y2="254.827" gradientUnits="userSpaceOnUse"><stop stop-color="#00FFFC"/><stop offset="1" stop-color="#00ADA3" stop-opacity="0"/></linearGradient><linearGradient id="d" x1="53.002" x2="53.002" y1="-1.663" y2="98.857" gradientUnits="userSpaceOnUse"><stop stop-color="#00FFFC"/><stop offset="1" stop-color="#00ADA3" stop-opacity="0"/></linearGradient><linearGradient id="e" x1="52.997" x2="52.997" y1="-236.741" y2="765.935" gradientUnits="userSpaceOnUse"><stop stop-color="#00FFFC"/><stop offset="1" stop-color="#00ADA3" stop-opacity="0"/></linearGradient><linearGradient id="f" x1="52.992" x2="52.992" y1="7.479" y2="124.682" gradientUnits="userSpaceOnUse"><stop stop-color="#00FFFC"/><stop offset="1" stop-color="#00ADA3" stop-opacity="0"/></linearGradient><linearGradient id="g" x1="52.997" x2="52.997" y1="-28.922" y2="88.261" gradientUnits="userSpaceOnUse"><stop stop-color="#00FFFC"/><stop offset="1" stop-color="#00ADA3" stop-opacity="0"/></linearGradient></defs></svg>