<svg xmlns="http://www.w3.org/2000/svg" width="106" height="106" fill="none" viewBox="0 0 106 106"><path fill="url(#a)" d="M95.782 53.31c0-4.75-2.787-9.088-7.03-11.113a12.24 12.24 0 0 0 .519-3.512c0-6.791-5.527-12.317-12.318-12.317l-.18.003c-1.731-6.773-7.865-11.6-14.942-11.6-2.785 0-5.53.767-7.936 2.216-.01.007-.018.014-.029.02a.157.157 0 0 0-.038.03 1.237 1.237 0 0 0-.128.102c-.007.007-.014.01-.017.017a1.13 1.13 0 0 0-.117.142c-.007.014-.018.024-.025.038a1.099 1.099 0 0 0-.077.142c-.004.007-.007.017-.014.024a1.027 1.027 0 0 0-.057.177l-.01.046c-.011.064-.022.127-.022.194v70.162c0 .067.007.13.021.194 0 .018.008.032.011.046.014.06.032.12.056.177.004.01.008.017.015.024.02.05.05.096.077.142.008.014.018.025.025.039.035.05.074.099.117.141.007.007.014.01.017.018a.97.97 0 0 0 .128.102l.038.028c.011.007.018.015.029.022a15.397 15.397 0 0 0 7.936 2.215c7.59 0 14.087-5.66 15.235-13.07 6.738-.063 12.2-5.561 12.2-12.313 0-.541-.038-1.082-.109-1.619A12.316 12.316 0 0 0 95.78 53.31h.003Z"/><path fill="url(#b)" d="M51.217 23.877a5.67 5.67 0 0 0-1.619-4.046 5.655 5.655 0 0 0-4.007-1.717c-3.14-.021-5.724 2.487-5.763 5.625-.003.37.029.731.092 1.081l-11.635 3.943a5.656 5.656 0 0 0-4.816-2.777h-.07a5.652 5.652 0 0 0-3.976 1.618 5.656 5.656 0 0 0-1.717 4.007 5.656 5.656 0 0 0 1.619 4.046 5.656 5.656 0 0 0 4.006 1.717h.071a5.59 5.59 0 0 0 1.25-.145l4.22 9.59-7.986 2.897a5.67 5.67 0 0 0-2.098-2.148 5.664 5.664 0 0 0-4.318-.59 5.699 5.699 0 0 0-4.06 6.953 5.65 5.65 0 0 0 2.636 3.47 5.656 5.656 0 0 0 4.318.586 5.65 5.65 0 0 0 3.47-2.635 5.641 5.641 0 0 0 .727-3.566l8.19-2.971 3.739 8.498-7.767 10.773a5.702 5.702 0 0 0-2.257-.498c-1.523-.004-2.958.558-4.046 1.618a5.656 5.656 0 0 0-1.717 4.007 5.65 5.65 0 0 0 1.618 4.045 5.655 5.655 0 0 0 4.007 1.717h.07a5.652 5.652 0 0 0 3.976-1.618c.261-.254.49-.53.696-.82l11.787 4.608a5.701 5.701 0 0 0 5.59 6.314h.07a5.698 5.698 0 0 0 5.692-5.625 5.67 5.67 0 0 0-1.618-4.046 5.656 5.656 0 0 0-4.007-1.717c-.473 0-.936.06-1.388.166l-4.233-9.621.925-.442a5.69 5.69 0 0 0 4.559 2.389h.07a5.652 5.652 0 0 0 3.975-1.619 5.656 5.656 0 0 0 1.717-4.006 5.701 5.701 0 0 0-5.625-5.763h-.07A5.697 5.697 0 0 0 39.82 62.8c-.007.48.057.943.163 1.392l-.901.428-3.099-7.042 7.452-10.335c.626.247 1.3.392 2.01.399h.071a5.697 5.697 0 0 0 5.692-5.625 5.67 5.67 0 0 0-1.618-4.046 5.663 5.663 0 0 0-2.95-1.604h.003l-.024-6.982a5.652 5.652 0 0 0 2.872-1.512 5.656 5.656 0 0 0 1.717-4.007l.008.01ZM21.423 51.044a4.677 4.677 0 0 0 .089.424 6.039 6.039 0 0 0-.089-.424Zm18.625-25.676v-.01.01ZM26.649 36.356a5.688 5.688 0 0 0 2.449-4.6 5.87 5.87 0 0 0-.07-.936l11.69-3.965a5.705 5.705 0 0 0 3.729 2.54l.024 6.972c-2.61.491-4.61 2.77-4.642 5.526a5.88 5.88 0 0 0 .07.936l-8.975 3.255-4.278-9.724.003-.004Zm-.46.29h.004-.003Zm19.325-7.14h.014-.014ZM28.37 76.088l-.007.01s.003-.007.007-.01Zm13.854 1.067a5.498 5.498 0 0 0-.671.551c-.417.41-.763.873-1.035 1.37v-.003L28.96 74.56a5.77 5.77 0 0 0 .141-1.187 5.718 5.718 0 0 0-.18-1.48l9.084-4.319 4.22 9.586v-.003ZM39.95 80.66s.003-.032.007-.046a.208.208 0 0 1-.007.046Zm.141-.566v-.014.014Zm-2.965-14.522-9.144 4.347a6.116 6.116 0 0 0-.498-.598l.032.036 7.003-9.713 2.608 5.925v.004Zm-2.148-10.296-3.166-7.19 8.834-3.205c.265.442.586.845.96 1.198l-6.628 9.194v.003Z"/><path fill="#fff" d="M95.782 53.31c0-4.75-2.787-9.088-7.03-11.113a12.24 12.24 0 0 0 .519-3.512c0-6.791-5.527-12.317-12.318-12.317l-.18.003c-1.731-6.773-7.865-11.6-14.942-11.6a15.4 15.4 0 0 0-7.936 2.216c-.01.007-.018.014-.029.02a.157.157 0 0 0-.038.03 1.237 1.237 0 0 0-.128.102c-.007.007-.014.01-.017.017a1.13 1.13 0 0 0-.117.142c-.007.014-.018.024-.025.038a1.099 1.099 0 0 0-.077.142c-.004.01-.01.017-.014.024a1.027 1.027 0 0 0-.057.177l-.01.046c-.011.064-.022.127-.022.194v70.162c0 .067.007.13.021.194 0 .018.008.032.011.046.014.06.032.12.056.177.004.01.008.017.015.024.02.05.05.096.077.142.008.014.018.025.025.039.035.05.074.099.117.141.007.007.014.01.017.018a.97.97 0 0 0 .128.102l.038.028c.011.007.018.015.029.022a15.397 15.397 0 0 0 7.936 2.215c7.59 0 14.087-5.66 15.235-13.066 6.738-.064 12.2-5.562 12.2-12.314 0-.54-.038-1.081-.109-1.618a12.316 12.316 0 0 0 6.622-10.918l.003-.004Zm-8.268 9.288c-.02.011-.038.025-.06.036-.042.021-.088.042-.127.07-.028.022-.053.046-.078.068-.028.024-.056.046-.08.07-.026.029-.047.057-.072.089-.02.024-.042.049-.06.077-.017.029-.031.06-.05.092-.017.032-.034.064-.048.096-.011.031-.018.063-.029.091-.01.036-.025.071-.032.11-.007.035-.007.07-.01.11 0 .035-.01.067-.007.102 0 .05.007.099.014.148 0 .022 0 .043.007.064.134.664.205 1.346.205 2.028 0 5.484-4.378 9.968-9.826 10.13v-.18c0-1.54-.23-3.039-.657-4.46a8.154 8.154 0 0 0 2.427-1.674 8.192 8.192 0 0 0 2.406-5.462 1.095 1.095 0 0 0-1.042-1.138 1.089 1.089 0 0 0-1.138 1.042 6.018 6.018 0 0 1-1.767 4.01 5.94 5.94 0 0 1-1.66 1.174 15.417 15.417 0 0 0-9.141-8.141 1.09 1.09 0 0 0-1.378.692c-.19.573.12 1.191.692 1.378a13.227 13.227 0 0 1 9.081 12.572c0 .4-.028.802-.06 1.141-.58 6.791-6.374 12.109-13.19 12.109a13.19 13.19 0 0 1-6.282-1.6v-8.117a8.185 8.185 0 0 0 3.834-.664 5.945 5.945 0 0 1 2.473-.537h.007a6.01 6.01 0 0 1 4.077 1.586c.209.195.474.287.739.287a1.09 1.09 0 0 0 .735-1.894 8.163 8.163 0 0 0-4.7-2.113 8.187 8.187 0 0 0 1.594-4.52 1.09 1.09 0 0 0-1.046-1.134 1.081 1.081 0 0 0-1.134 1.046 6.029 6.029 0 0 1-1.76 4.014 5.98 5.98 0 0 1-1.67 1.177 7.214 7.214 0 0 0-.29.13 5.998 5.998 0 0 1-2.86.432v-49.87a8.195 8.195 0 0 0 2.085 1.173 6.019 6.019 0 0 1 3.827 5.35 1.092 1.092 0 0 0 1.088 1.046h.046a1.09 1.09 0 0 0 1.043-1.138 8.156 8.156 0 0 0-1.83-4.816 8.19 8.19 0 0 0 4.32-2.067 1.09 1.09 0 1 0-1.477-1.604 6.01 6.01 0 0 1-6.101 1.243 7.037 7.037 0 0 0-.29-.11 6.015 6.015 0 0 1-2.693-2.197l-.02-.025v-5.568a13.188 13.188 0 0 1 6.282-1.6c6.352 0 11.822 4.525 13.01 10.762.158.844.24 1.682.24 2.487 0 5.477-3.453 10.455-8.59 12.392a13.153 13.153 0 0 1-4.66.858 1.092 1.092 0 0 0 0 2.184c1.17 0 2.335-.138 3.48-.406a8.217 8.217 0 0 0-.77 3.47c0 2.066.77 4.041 2.17 5.56.215.234.508.354.801.354a1.093 1.093 0 0 0 .802-1.83 6.01 6.01 0 0 1-1.593-4.085 6.02 6.02 0 0 1 2.66-5c.071-.049.131-.105.188-.165a15.535 15.535 0 0 0 4.688-4.226 6.03 6.03 0 0 1 2.378 1.462 5.985 5.985 0 0 1 1.424 2.248 1.091 1.091 0 1 0 2.057-.728 8.221 8.221 0 0 0-4.668-4.865 15.319 15.319 0 0 0 1.816-7.22c0-.54-.032-1.091-.092-1.65 5.488.117 9.918 4.619 9.918 10.134 0 .93-.13 1.852-.385 2.75a12.155 12.155 0 0 0-3.236-.442 1.093 1.093 0 0 0 0 2.183c1.194 0 2.388.22 3.544.65 3.943 1.474 6.593 5.286 6.593 9.487 0 4.201-2.389 7.675-6.084 9.29l-.008-.008Z"/><path fill="#fff" d="M80.511 52.66c0-.909.195-1.785.583-2.598a1.094 1.094 0 0 0-.515-1.456 1.095 1.095 0 0 0-1.456.516 8.176 8.176 0 0 0-.795 3.534c0 2.07.77 4.045 2.173 5.568a1.092 1.092 0 0 0 1.54.067 1.086 1.086 0 0 0 .064-1.54 6.04 6.04 0 0 1-1.597-4.095l.003.003ZM40.715 26.855a5.605 5.605 0 0 1-.795-2.035l-11.635 3.943c.378.63.63 1.325.739 2.053l11.691-3.964v.003Zm5.912 2.541c-.36.07-.728.106-1.103.106h-.07a5.591 5.591 0 0 1-1.007-.106l.024 6.971a5.69 5.69 0 0 1 1.05-.102h.07c.36.003.718.045 1.064.113l-.025-6.982h-.003ZM28.073 76.552l11.787 4.607c.082-.738.3-1.445.65-2.088l-11.557-4.516a5.701 5.701 0 0 1-.88 2v-.003Zm12.823-10.364a5.685 5.685 0 0 1-.909-1.985l-.9.427-3.1-7.042 7.453-10.335a5.715 5.715 0 0 1-1.841-1.176L34.97 55.27l-3.166-7.19 8.834-3.205a5.632 5.632 0 0 1-.742-2.053l-8.975 3.255-4.279-9.724a5.644 5.644 0 0 1-1.996.88l4.219 9.59-7.986 2.896a5.7 5.7 0 0 1 .537 1.322c.067.25.11.502.138.753l8.19-2.972 3.739 8.498-7.767 10.773c.647.29 1.24.7 1.75 1.219.01.01.02.025.031.035l7.003-9.713 2.608 5.925-9.144 4.346c.441.594.756 1.262.94 1.968l9.084-4.317 4.218 9.586a5.71 5.71 0 0 1 1.986-.901l-4.233-9.622.926-.441.01.01Z"/><path fill="#fff" d="M45.524 29.505h-.07a5.699 5.699 0 0 1-5.626-5.763c.04-3.14 2.622-5.65 5.763-5.625a5.662 5.662 0 0 1 4.007 1.717 5.641 5.641 0 0 1 1.619 4.046 5.663 5.663 0 0 1-1.718 4.007 5.656 5.656 0 0 1-3.975 1.622v-.004Zm-.007-9.208c-.922 0-1.791.354-2.452 1a3.514 3.514 0 0 0 2.41 6.028h.042a3.48 3.48 0 0 0 2.452-1 3.49 3.49 0 0 0 1.057-2.473 3.48 3.48 0 0 0-1-2.495 3.49 3.49 0 0 0-2.474-1.056h-.042l.007-.004ZM23.398 37.381h-.07a5.661 5.661 0 0 1-4.007-1.717 5.655 5.655 0 0 1-1.618-4.046 5.662 5.662 0 0 1 1.717-4.007 5.652 5.652 0 0 1 3.975-1.618h.07a5.662 5.662 0 0 1 4.008 1.717 5.655 5.655 0 0 1 1.618 4.046 5.702 5.702 0 0 1-5.693 5.625Zm0-9.208c-.922 0-1.79.354-2.452 1a3.508 3.508 0 0 0-1.06 2.473 3.48 3.48 0 0 0 1 2.495 3.485 3.485 0 0 0 2.47 1.06h.042a3.515 3.515 0 0 0 .04-7.028h-.043.003ZM45.52 47.656h-.07a5.699 5.699 0 0 1-5.625-5.763 5.702 5.702 0 0 1 5.692-5.625h.07a5.663 5.663 0 0 1 4.008 1.717 5.656 5.656 0 0 1 1.618 4.046 5.702 5.702 0 0 1-5.692 5.625Zm0-9.208a3.515 3.515 0 0 0-3.511 3.47 3.48 3.48 0 0 0 1 2.494 3.485 3.485 0 0 0 2.47 1.06h.042a3.515 3.515 0 0 0 .039-7.027h-.043l.004.003ZM15.904 58.189a5.693 5.693 0 0 1-2.862-.778 5.65 5.65 0 0 1-2.636-3.47 5.701 5.701 0 0 1 4.06-6.953 5.664 5.664 0 0 1 4.318.59 5.65 5.65 0 0 1 2.636 3.47 5.665 5.665 0 0 1-.59 4.318 5.65 5.65 0 0 1-3.47 2.636 5.72 5.72 0 0 1-1.456.19v-.003Zm.014-9.212a3.517 3.517 0 0 0-3.403 4.406 3.486 3.486 0 0 0 1.626 2.142c.81.473 1.756.6 2.664.364a3.486 3.486 0 0 0 2.142-1.626 3.5 3.5 0 0 0 .364-2.664 3.486 3.486 0 0 0-1.626-2.141 3.494 3.494 0 0 0-1.766-.48Zm29.606 19.6h-.07a5.699 5.699 0 0 1-5.626-5.763 5.702 5.702 0 0 1 5.693-5.625h.07a5.701 5.701 0 0 1 5.626 5.763 5.663 5.663 0 0 1-1.718 4.007 5.652 5.652 0 0 1-3.975 1.618Zm0-9.208a3.515 3.515 0 0 0-3.512 3.47 3.515 3.515 0 0 0 3.47 3.554 3.464 3.464 0 0 0 2.498-1 3.514 3.514 0 0 0-2.41-6.028h-.042l-.004.004Zm-.004 28.104h-.07a5.701 5.701 0 0 1-5.625-5.763 5.662 5.662 0 0 1 1.717-4.007c1.088-1.063 2.537-1.621 4.046-1.618a5.662 5.662 0 0 1 4.007 1.717 5.655 5.655 0 0 1 1.618 4.046 5.702 5.702 0 0 1-5.692 5.625Zm0-9.208c-.922 0-1.79.354-2.451 1a3.515 3.515 0 0 0 2.41 6.028h.042a3.515 3.515 0 0 0 .039-7.028h-.043.004Zm-22.118.728h-.07a5.662 5.662 0 0 1-4.007-1.717 5.656 5.656 0 0 1-1.619-4.046 5.663 5.663 0 0 1 1.718-4.007c1.088-1.063 2.526-1.621 4.045-1.618a5.662 5.662 0 0 1 4.007 1.717 5.656 5.656 0 0 1 1.618 4.046 5.662 5.662 0 0 1-1.717 4.007 5.652 5.652 0 0 1-3.975 1.618Zm0-9.208c-.922 0-1.791.354-2.452 1a3.5 3.5 0 0 0-1.06 2.47 3.49 3.49 0 0 0 1 2.498 3.5 3.5 0 0 0 2.47 1.06h.042c.922 0 1.791-.353 2.452-1a3.508 3.508 0 0 0 1.06-2.473 3.48 3.48 0 0 0-1-2.495 3.487 3.487 0 0 0-2.473-1.06h-.043.004Z"/><defs><linearGradient id="a" x1="53.008" x2="53.008" y1="-3.069" y2="82.477" gradientUnits="userSpaceOnUse"><stop stop-color="#00F19F"/><stop offset="1" stop-color="#00A697" stop-opacity="0"/></linearGradient><linearGradient id="b" x1="52.993" x2="52.993" y1="-8.584" y2="85.736" gradientUnits="userSpaceOnUse"><stop stop-color="#00F19F"/><stop offset="1" stop-color="#00A697" stop-opacity="0"/></linearGradient></defs></svg>