<svg xmlns="http://www.w3.org/2000/svg" xmlns:xlink="http://www.w3.org/1999/xlink" width="341.268" height="215.355" xmlns:v="https://vecta.io/nano"><style><![CDATA[.B{fill:#a8cff0}.C{fill:#3f92d1}.D{fill:#2672ab}.E{fill:#72b5e8}.F{fill:#03336e}.G{fill:#084c94}.H{fill:#fff}.I{fill:#fc0}.J{fill:#d1ebff}.K{fill:#001a46}.L{fill:#ffde17}.M{fill:#e6f4ff}]]></style><defs><linearGradient id="A" x1="-4.935" y1="18.637" x2="-3.78" y2="18.637"><stop offset="0" stop-color="#311b61"/><stop offset=".203" stop-color="#290e52"/><stop offset=".495" stop-color="#200041"/><stop offset="1" stop-color="#0f001f"/></linearGradient><linearGradient id="B" x1="73.546" y1="-.51" x2="73.191" y2=".643"><stop offset=".035" stop-color="#1e1f21"/><stop offset=".31" stop-color="#2c2d30"/><stop offset=".84" stop-color="#505358"/><stop offset="1" stop-color="#5d6066"/></linearGradient><path id="C" d="M102.093 39.706c0 2.2 1.781 2.949 3.977 1.681a8.25 8.25 0 0 0 3.977-6.274c0-2.2-1.78-2.949-3.977-1.68a8.25 8.25 0 0 0-3.977 6.273z"/><path id="D" d="M117.276 74.579c0 .567.4.795.894.51a1.97 1.97 0 0 0 .895-1.542c0-.567-.4-.794-.895-.509a1.97 1.97 0 0 0-.894 1.541z"/><path id="E" d="M117.276 78.798c0 .567.4.795.894.51a1.97 1.97 0 0 0 .895-1.542c0-.567-.4-.795-.895-.51a1.97 1.97 0 0 0-.894 1.542z"/></defs><path d="M185.847 192.405L91.304 137.82c-3.733-2.156-3.265-5.921 1.046-8.41l53.655-30.978c4.311-2.489 10.832-2.759 14.566-.6l94.543 54.584c3.733 2.155 3.266 5.921-1.045 8.41l-53.656 30.978c-4.312 2.486-10.832 2.757-14.566.601z" fill="#92b4d1" opacity=".2"/><path d="M185.847 188.782l-94.543-54.584c-1.424-.655-2.386-2.024-2.519-3.586v-4.683c.03-1.635 1.238 1.2 3.566-.141l53.655-30.978c4.311-2.489 10.832-2.759 14.566-.6l94.542 54.572c1.246.72 2.15-2.335 2.473-1.363.108.323.039 4.608.046 4.944.036 1.674-1.174 3.448-3.565 4.829l-53.656 30.978c-4.31 2.492-10.831 2.763-14.565.612z" class="D"/><path d="M185.847 184.181l-94.543-54.584c-3.733-2.156-3.265-5.92 1.046-8.41l53.655-30.978c4.311-2.489 10.832-2.759 14.566-.6l94.543 54.584c3.733 2.156 3.266 5.921-1.045 8.41l-53.656 30.978c-4.312 2.485-10.832 2.756-14.566.6z" class="J"/><g class="C"><path d="M185.848 188.778c3.733 2.156 10.255 1.885 14.566-.6v-4.6c-4.311 2.489-10.832 2.759-14.566.6z" opacity=".5"/><path d="M185.847 184.181l-94.543-54.584c-1.8-1.043-2.619-2.462-2.5-3.93a1.74 1.74 0 0 0-.019.257v4.684c.133 1.561 1.095 2.93 2.519 3.585l94.543 54.58z"/></g><g class="H"><path d="M254.068 151.819l-53.656 30.978c-4.311 2.489-10.832 2.759-14.565.6l-94.543-54.584c-1.323-.628-2.253-1.864-2.491-3.309-.194 1.526.621 3.01 2.491 4.089l94.543 54.584c3.733 2.156 10.254 1.885 14.565-.6l53.656-30.975c2.523-1.456 3.718-3.349 3.537-5.1-.192 1.515-1.384 3.074-3.537 4.317z"/><path d="M164.326 165.112l-33.647-19.427c-.674-.389-.589-1.069.189-1.518l12.633-7.294a2.92 2.92 0 0 1 2.628-.108l33.647 19.429c.674.389.589 1.069-.189 1.518l-12.631 7.291a2.92 2.92 0 0 1-2.63.109z" opacity=".3"/></g><path d="M130.868 144.966l12.633-7.294a2.92 2.92 0 0 1 2.628-.109l33.647 19.431a1.04 1.04 0 0 1 .311.273.7.7 0 0 0-.311-1.071l-33.647-19.427c-.844-.382-1.819-.342-2.628.109l-12.633 7.294c-.619.358-.791.858-.5 1.245a1.47 1.47 0 0 1 .5-.451z" class="B"/><path d="M154.416 96.62l5.8 3.349a2.94 2.94 0 0 0 2.662 0 .81.81 0 0 0-.008-1.536l-5.8-3.348a2.94 2.94 0 0 0-2.662-.005.81.81 0 0 0 .008 1.54zm9.928 5.732l2.747 1.586a2.94 2.94 0 0 0 2.662.005.81.81 0 0 0-.008-1.536l-2.747-1.586c-.836-.426-1.825-.428-2.662-.005a.81.81 0 0 0 .009 1.536zm6.876 3.97l2.747 1.586a2.94 2.94 0 0 0 2.662.005.81.81 0 0 0-.008-1.537l-2.747-1.586c-.836-.426-1.825-.428-2.662-.005a.81.81 0 0 0 .009 1.538zm6.877 3.97l2.747 1.586c.836.426 1.825.428 2.663.005a.81.81 0 0 0-.008-1.537l-2.747-1.586c-.836-.426-1.825-.428-2.663-.005a.81.81 0 0 0 .008 1.538zm6.877 3.97l2.747 1.586a2.94 2.94 0 0 0 2.662.005.81.81 0 0 0-.008-1.537l-2.747-1.586a2.94 2.94 0 0 0-2.662-.005.81.81 0 0 0 .008 1.538zm6.877 3.97l2.747 1.586c.836.426 1.825.428 2.662.005a.81.81 0 0 0-.008-1.537l-2.747-1.586a2.94 2.94 0 0 0-2.662-.005.81.81 0 0 0 .008 1.538zm6.877 3.969l2.747 1.586c.836.426 1.825.428 2.662.005a.81.81 0 0 0-.008-1.537l-2.747-1.586a2.94 2.94 0 0 0-2.662-.005.81.81 0 0 0 .007 1.539zm6.876 3.97l2.747 1.586a2.94 2.94 0 0 0 2.662 0 .81.81 0 0 0-.008-1.536l-2.747-1.586a2.94 2.94 0 0 0-2.662-.005.81.81 0 0 0 .007 1.543zm6.877 3.97l2.747 1.586a2.94 2.94 0 0 0 2.662 0 .81.81 0 0 0-.008-1.537l-2.747-1.586a2.94 2.94 0 0 0-2.662 0 .81.81 0 0 0 .007 1.539zm6.877 3.97l2.747 1.586a2.94 2.94 0 0 0 2.662 0 .81.81 0 0 0-.008-1.536l-2.747-1.586a2.94 2.94 0 0 0-2.662 0 .81.81 0 0 0 .009 1.539zm6.877 3.97l2.747 1.586a2.94 2.94 0 0 0 2.662.005.81.81 0 0 0-.008-1.536l-2.747-1.586c-.836-.426-1.825-.428-2.662-.005a.81.81 0 0 0 .006 1.538zm6.877 3.97l2.747 1.586a2.94 2.94 0 0 0 2.662.005.81.81 0 0 0-.008-1.537l-2.747-1.586c-.836-.426-1.825-.428-2.662-.005a.81.81 0 0 0 .005 1.54zm7.019 4.052l2.747 1.586c.836.426 1.825.428 2.662.005a.81.81 0 0 0-.008-1.537l-2.747-1.586a2.94 2.94 0 0 0-2.662-.005.81.81 0 0 0 .005 1.54zm-91.9-45.7l2.378 1.372a3.35 3.35 0 0 0 3.03.006l2.364-1.365c.374-.129.625-.482.623-.878s-.257-.746-.633-.871l-2.378-1.373c-.951-.485-2.077-.487-3.03-.005l-2.363 1.364c-.375.129-.626.482-.624.879s.257.747.633.872zm12.284 5.349l2.363-1.365c.375-.129.625-.482.623-.878s-.256-.747-.632-.871l-2.378-1.373c-.951-.485-2.077-.487-3.03-.005l-2.363 1.364c-.375.128-.627.482-.625.878s.257.747.634.872l2.378 1.372a3.35 3.35 0 0 0 3.031.007zm1.469 2.592l2.375 1.37a3.35 3.35 0 0 0 3.03.006l2.363-1.365c.375-.129.625-.482.623-.878s-.256-.747-.632-.871l-2.378-1.373c-.951-.485-2.077-.487-3.03-.005l-2.364 1.364c-.375.129-.626.484-.623.881s.26.748.637.871zm6.875 3.97l2.378 1.372a3.35 3.35 0 0 0 3.03.006l2.363-1.365c.375-.129.625-.482.623-.878s-.256-.747-.632-.871l-2.378-1.373a3.35 3.35 0 0 0-3.03-.006l-2.363 1.365c-.374.129-.625.482-.623.878s.256.747.632.872zm14.638 2.234l-2.378-1.372a3.35 3.35 0 0 0-3.03-.006l-2.363 1.365c-.375.129-.625.482-.623.878s.256.747.632.871l2.378 1.373c.951.485 2.077.487 3.03.005l2.363-1.364c.375-.128.626-.481.624-.877s-.256-.747-.632-.872zm6.877 3.97l-2.378-1.372a3.35 3.35 0 0 0-3.03-.006l-2.363 1.365c-.375.129-.625.482-.623.878s.256.747.632.871l2.378 1.373c.951.485 2.077.487 3.03.005l2.363-1.364c.375-.128.626-.481.624-.877s-.256-.747-.632-.872zm6.877 3.97l-2.378-1.372a3.35 3.35 0 0 0-3.03-.006l-2.364 1.365c-.374.129-.625.482-.623.878s.257.746.633.871l2.378 1.373c.951.485 2.077.487 3.03.005l2.363-1.364c.374-.129.623-.482.622-.877s-.255-.746-.63-.872zm6.877 3.97l-2.378-1.372a3.35 3.35 0 0 0-3.03-.006l-2.364 1.364c-.374.129-.625.482-.623.878s.256.747.632.872l2.379 1.373c.951.485 2.076.487 3.029.005l2.364-1.364c.373-.13.622-.482.62-.877s-.255-.745-.629-.871zm6.877 3.97l-2.379-1.373a3.35 3.35 0 0 0-3.029-.005l-2.363 1.364c-.374.129-.625.482-.623.878s.256.747.632.872l2.378 1.373a3.35 3.35 0 0 0 3.03.005l2.363-1.364c.373-.13.622-.482.62-.877s-.255-.745-.629-.871zm6.876 3.97l-2.378-1.373c-.951-.485-2.077-.487-3.03-.005l-2.363 1.364c-.374.129-.625.482-.623.878s.256.747.632.872l2.378 1.372a3.35 3.35 0 0 0 3.03.006l2.364-1.365c.373-.13.622-.482.62-.877s-.255-.745-.63-.87zm-.885 5.705l2.378 1.372a3.35 3.35 0 0 0 3.03.006l2.363-1.365c.375-.129.625-.482.623-.878s-.256-.747-.632-.871l-2.378-1.373c-.951-.485-2.077-.487-3.03-.005l-2.363 1.364c-.377.127-.63.482-.628.879s.259.749.637.873zm14.638 2.235l-2.378-1.373c-.951-.485-2.077-.487-3.03-.005l-2.364 1.364c-.374.129-.624.483-.622.879s.256.746.632.871l2.378 1.372a3.35 3.35 0 0 0 3.03.006l2.363-1.365c.373-.129.622-.482.62-.877s-.255-.745-.629-.87zm10.071 5.815l-5.43-3.135a3.35 3.35 0 0 0-3.03-.006l-2.364 1.365c-.374.129-.625.482-.623.878s.257.746.633.871l5.43 3.135a3.35 3.35 0 0 0 3.03.006l2.363-1.365c.373-.129.622-.482.62-.877s-.255-.745-.629-.87zm-99.846-44.072l5.43 3.136c.951.485 2.077.487 3.03.005l2.364-1.364c.374-.129.625-.482.623-.878s-.256-.747-.632-.872l-5.431-3.135a3.35 3.35 0 0 0-3.029-.006l-2.363 1.365c-.375.128-.626.481-.624.877s.256.747.632.872zm9.928 5.732l2.378 1.373a3.35 3.35 0 0 0 3.03.005l2.364-1.364c.374-.129.624-.483.622-.879s-.256-.746-.632-.871l-2.378-1.373a3.35 3.35 0 0 0-3.03-.005l-2.363 1.364c-.375.13-.625.484-.622.88s.259.747.635.871zm9.255 5.343a3.35 3.35 0 0 0 3.03.006l2.363-1.365c.375-.129.625-.482.623-.878s-.256-.747-.632-.871l-2.378-1.373c-.951-.485-2.077-.487-3.03-.005l-2.359 1.364c-.375.128-.627.482-.625.878s.257.747.634.872zm6.877 3.97a3.35 3.35 0 0 0 3.03.006l2.363-1.365c.375-.129.625-.482.623-.878s-.256-.747-.632-.871l-2.378-1.373c-.951-.485-2.077-.487-3.03-.005l-2.364 1.364c-.374.129-.624.483-.622.879s.256.746.632.871zm6.852-.516l-2.364 1.364c-.374.129-.625.482-.623.878s.256.747.632.872l2.379 1.372a3.35 3.35 0 0 0 3.029.006l2.364-1.365c.375-.129.625-.482.623-.878s-.256-.747-.632-.871l-2.378-1.373c-.951-.483-2.075-.483-3.027-.001zm7.021 3.886l-2.654 1.532c-.338.117-.564.436-.562.793s.231.674.57.788l2.671 1.542a3.03 3.03 0 0 0 2.738.005l2.654-1.532c.338-.117.564-.436.562-.794s-.231-.674-.571-.787l-2.671-1.542c-.859-.437-1.874-.438-2.734-.005zm6.877 3.97l-2.654 1.532c-.338.117-.564.436-.562.793s.231.674.57.788l2.67 1.542c.86.438 1.877.44 2.738.005l2.654-1.532c.338-.117.564-.436.562-.793s-.231-.674-.57-.788l-2.671-1.542c-.859-.437-1.874-.438-2.734-.005zm6.877 3.97l-2.654 1.532c-.338.116-.565.435-.563.793s.231.674.571.787l2.67 1.542c.86.438 1.877.44 2.738.005l2.654-1.532c.338-.117.564-.436.562-.793s-.231-.674-.57-.788l-2.671-1.542c-.859-.437-1.875-.438-2.735-.004zm6.877 3.97l-2.654 1.532c-.339.116-.566.436-.564.794s.233.675.573.787l2.671 1.542c.861.436 1.877.436 2.738 0l2.654-1.531c.338-.117.564-.436.562-.793s-.231-.674-.57-.788l-2.674-1.535c-.858-.438-1.874-.44-2.734-.007zm6.877 3.97l-2.654 1.532c-.339.116-.566.435-.564.793s.232.675.572.788l2.67 1.542c.86.438 1.877.44 2.738.005l2.654-1.532c.338-.116.565-.435.563-.793s-.231-.674-.571-.787l-2.671-1.542c-.859-.437-1.875-.439-2.735-.005zm9.639 8.63l2.654-1.532c.339-.116.566-.435.564-.793s-.232-.675-.572-.788l-2.671-1.542c-.86-.438-1.877-.44-2.738-.005l-2.654 1.532c-.339.116-.566.435-.564.793s.232.675.572.788l2.671 1.542c.86.439 1.878.441 2.74.006zm6.877 3.97l2.654-1.532c.339-.116.566-.435.564-.793s-.232-.675-.572-.788l-2.671-1.542c-.861-.436-1.877-.436-2.738 0l-2.654 1.531c-.338.117-.564.436-.562.793s.231.674.57.788l2.67 1.542c.861.438 1.879.439 2.741.002zm9.665.939l-2.67-1.542c-.86-.438-1.877-.44-2.738-.005l-2.654 1.532c-.338.117-.564.436-.562.793s.231.674.57.788l2.67 1.542c.86.438 1.877.44 2.738.005l2.654-1.532c.339-.116.566-.435.564-.794s-.231-.675-.571-.788zm-100.134-44.241l8.622 4.978c.861.436 1.877.436 2.738 0l2.654-1.531c.338-.117.564-.436.562-.793s-.231-.674-.57-.788l-8.621-4.978c-.861-.436-1.877-.436-2.738 0l-2.654 1.532c-.338.116-.565.435-.563.793s.231.674.57.787zm12.828 7.406l2.671 1.542c.86.438 1.877.44 2.738.005l2.654-1.532c.339-.116.566-.435.564-.793s-.232-.675-.572-.788l-2.671-1.542c-.86-.438-1.877-.44-2.738-.005l-2.654 1.532c-.339.116-.566.435-.564.793s.232.675.572.788zm6.877 3.97l2.67 1.542c.86.438 1.877.44 2.738.005l2.654-1.532c.338-.116.565-.435.563-.793s-.231-.674-.571-.787l-2.671-1.542c-.86-.438-1.877-.44-2.738-.005l-2.654 1.532c-.338.116-.565.435-.563.793s.231.674.571.787zm6.877 3.97l2.67 1.542c.86.438 1.877.44 2.739.005l2.654-1.532c.338-.116.565-.435.563-.793s-.231-.674-.571-.787l-2.671-1.542a3.03 3.03 0 0 0-2.738 0l-2.654 1.531c-.334.119-.557.436-.555.79s.227.67.562.786zm12.284 5.517l2.654-1.532c.338-.117.564-.436.562-.793s-.232-.674-.571-.787l-2.671-1.542c-.86-.438-1.877-.44-2.738-.005l-2.654 1.532c-.338.117-.564.436-.562.793s.231.674.57.788l2.67 1.542c.86.438 1.878.44 2.739.004zm6.877 3.97l2.654-1.532c.338-.117.564-.436.562-.793s-.231-.674-.57-.788l-2.67-1.542c-.86-.438-1.877-.44-2.738-.005l-2.654 1.532c-.338.117-.564.436-.562.793s.231.674.57.788l2.67 1.542a3.03 3.03 0 0 0 2.737.005zm6.877 3.97l2.654-1.532c.338-.117.564-.436.562-.793s-.231-.674-.57-.788l-2.671-1.542c-.86-.438-1.877-.44-2.738-.005l-2.654 1.532c-.338.117-.564.436-.562.793s.231.674.57.788l2.671 1.542c.859.438 1.876.44 2.737.006zm6.877 3.97l2.654-1.532c.338-.117.564-.436.562-.793s-.231-.674-.57-.788l-2.67-1.542c-.86-.438-1.877-.44-2.738-.005l-2.654 1.532c-.338.116-.565.435-.563.793s.231.674.571.787l2.67 1.542c.859.438 1.875.44 2.736.007zm6.876 3.969l2.654-1.531c.338-.117.564-.436.562-.793s-.231-.674-.57-.788l-2.671-1.542c-.86-.438-1.877-.44-2.738-.005l-2.654 1.532c-.338.116-.565.435-.563.793s.231.674.571.787l2.671 1.542c.859.437 1.876.438 2.736.003zm6.877 3.97l2.654-1.532c.338-.117.564-.436.562-.793s-.232-.674-.571-.787l-2.67-1.542c-.86-.438-1.877-.44-2.738-.005l-2.654 1.532c-.338.116-.565.435-.563.793s.231.674.571.787l2.67 1.542c.859.438 1.876.44 2.737.006zm1.462 2.428l2.671 1.542c.86.438 1.877.44 2.738.005l2.654-1.532c.339-.116.566-.435.564-.793s-.232-.675-.572-.788l-2.671-1.542c-.86-.438-1.877-.44-2.738-.005l-2.654 1.532c-.339.116-.566.435-.564.793s.232.675.572.788zm19.05 4.783l-6.79-3.92c-.86-.438-1.877-.44-2.738-.005l-2.654 1.532c-.338.116-.565.435-.563.793s.231.674.571.787l6.79 3.92c.86.438 1.877.44 2.738.005l2.654-1.532c.341-.114.57-.434.569-.793s-.232-.678-.573-.79zm-100.105-44.055l12.233 7.063c.971.495 2.12.497 3.093.005l2.3-1.328c.382-.132.637-.493.635-.897s-.262-.762-.645-.889l-12.233-7.063a3.42 3.42 0 0 0-3.093-.006l-2.3 1.328c-.383.131-.639.492-.637.897s.262.763.647.89zm16.795 9.7l2.314 1.336c.971.495 2.12.497 3.093.005l2.3-1.328c.382-.132.637-.493.635-.897s-.262-.762-.645-.889l-2.314-1.336a3.42 3.42 0 0 0-3.092-.006l-2.3 1.328c-.38.133-.635.492-.633.895s.26.76.642.889zm6.877 3.969l2.314 1.337c.971.495 2.12.497 3.093.005l2.3-1.328c.382-.132.637-.493.635-.897s-.262-.762-.645-.889l-2.314-1.336a3.42 3.42 0 0 0-3.093-.006l-2.3 1.328a.94.94 0 0 0 .01 1.783zm6.877 3.97l2.314 1.337c.971.495 2.119.496 3.092.005l2.3-1.328c.382-.132.638-.492.636-.896s-.261-.762-.645-.89l-2.314-1.336a3.42 3.42 0 0 0-3.093-.006l-2.3 1.328a.94.94 0 0 0 .01 1.783zm6.877 3.97l2.314 1.336a3.42 3.42 0 0 0 3.093.006l2.3-1.328c.382-.132.638-.492.636-.896s-.261-.762-.645-.89l-2.314-1.336a3.42 3.42 0 0 0-3.093-.006l-2.3 1.328c-.38.133-.633.492-.632.894s.259.759.64.889zm6.876 3.97l2.314 1.336a3.42 3.42 0 0 0 3.093.006l2.3-1.328c.382-.132.637-.493.635-.897s-.262-.762-.645-.889l-2.314-1.336a3.42 3.42 0 0 0-3.092-.006l-2.3 1.328c-.377.135-.628.492-.626.892s.256.756.634.887zm6.877 3.97l2.314 1.336a3.42 3.42 0 0 0 3.093.006l2.3-1.328a.94.94 0 0 0-.01-1.785l-2.314-1.337a3.42 3.42 0 0 0-3.093-.005l-2.3 1.328c-.38.133-.633.492-.631.895s.259.759.64.888zm6.877 3.97l2.314 1.336a3.42 3.42 0 0 0 3.093.006l2.3-1.328a.94.94 0 0 0-.009-1.785l-2.314-1.337c-.971-.495-2.12-.497-3.093-.005l-2.3 1.328c-.38.133-.633.492-.632.894s.259.759.64.889zm6.877 3.97l2.314 1.336a3.42 3.42 0 0 0 3.092.006l2.3-1.328c.382-.132.638-.492.636-.896s-.261-.762-.645-.89l-2.314-1.336c-.971-.495-2.12-.497-3.093-.005l-2.3 1.328c-.38.133-.633.492-.632.894s.259.759.64.889zm6.876 3.97l2.314 1.336c.971.495 2.12.497 3.093.005l2.3-1.328c.382-.132.638-.492.636-.896s-.261-.762-.645-.89l-2.314-1.336c-.971-.495-2.12-.497-3.093-.005l-2.3 1.328c-.381.132-.635.492-.634.894s.259.76.641.89zm6.877 3.97l2.314 1.336c.971.495 2.12.497 3.093.005l2.3-1.328c.382-.132.637-.493.635-.897s-.262-.762-.645-.889l-2.314-1.336a3.42 3.42 0 0 0-3.092-.006l-2.3 1.328c-.382.131-.638.491-.637.895s.26.762.643.891zm14.727 2.286l-2.314-1.336c-.971-.495-2.12-.497-3.093-.005l-2.3 1.328c-.382.132-.638.492-.636.896s.261.762.645.89l2.314 1.336c.971.495 2.12.497 3.093.005l2.3-1.328c.383-.131.64-.493.638-.898s-.264-.764-.649-.89zm-89.03-44.047l-5.366-3.1a3.42 3.42 0 0 0-3.093-.006l-2.3 1.328c-.382.132-.637.493-.635.897s.262.762.645.889l5.366 3.1a3.42 3.42 0 0 0 3.093.006l2.3-1.328c.383-.131.64-.493.637-.898s-.264-.763-.649-.89zm6.877 3.97l-2.314-1.336c-.971-.495-2.12-.497-3.093-.005l-2.3 1.328c-.382.132-.637.493-.635.897s.262.762.645.889l2.314 1.336c.971.495 2.12.497 3.093.005l2.3-1.328c.382-.133.637-.494.634-.899s-.265-.762-.649-.888zm6.877 3.97l-2.314-1.336a3.42 3.42 0 0 0-3.093-.006l-2.3 1.328c-.382.132-.637.493-.635.897s.262.762.645.889l2.314 1.336c.971.495 2.12.497 3.092.005l2.3-1.328c.382-.132.637-.493.634-.897s-.263-.761-.646-.889zm48.135 27.791l-43.573-25.157a3.42 3.42 0 0 0-3.093-.006l-2.3 1.328a.94.94 0 0 0 .009 1.785l43.573 25.157a3.42 3.42 0 0 0 3.093.006l2.3-1.328c.383-.132.638-.493.636-.898s-.263-.762-.648-.889zm6.877 3.97l-2.314-1.336c-.971-.495-2.12-.497-3.093-.005l-2.3 1.328c-.382.132-.637.493-.635.897s.262.762.645.889l2.314 1.336c.971.495 2.12.497 3.093.005l2.3-1.328c.379-.134.632-.494.629-.896s-.261-.758-.643-.887zm6.877 3.97l-2.314-1.336a3.42 3.42 0 0 0-3.093-.006l-2.3 1.329c-.382.132-.637.493-.635.897s.262.762.645.889l2.314 1.336c.971.495 2.12.497 3.092.005l2.3-1.328c.382-.132.638-.494.635-.898s-.264-.762-.648-.889zm7.02 4.053l-2.314-1.336a3.42 3.42 0 0 0-3.093-.006l-2.3 1.328c-.382.132-.637.493-.635.897s.262.762.645.889l2.306 1.335a3.42 3.42 0 0 0 3.092.006l2.3-1.328c.382-.131.639-.491.638-.895s-.26-.762-.643-.891z" class="E"/><path d="M154.416 95.98l5.8 3.348a2.94 2.94 0 0 0 2.662.005.81.81 0 0 0-.008-1.537l-5.8-3.348a2.94 2.94 0 0 0-2.662-.005.81.81 0 0 0 .008 1.537zm9.928 5.732l2.747 1.586a2.94 2.94 0 0 0 2.662.005.81.81 0 0 0-.008-1.537l-2.747-1.586a2.94 2.94 0 0 0-2.662-.005.81.81 0 0 0 .009 1.537zm6.876 3.97l2.747 1.586a2.94 2.94 0 0 0 2.662.005.81.81 0 0 0-.008-1.537l-2.747-1.586a2.94 2.94 0 0 0-2.662-.005.81.81 0 0 0 .009 1.537zm6.877 3.969l2.747 1.586a2.94 2.94 0 0 0 2.663 0 .81.81 0 0 0-.008-1.536l-2.747-1.586a2.94 2.94 0 0 0-2.663-.005.81.81 0 0 0 .008 1.542zm6.877 3.97l2.747 1.586a2.94 2.94 0 0 0 2.662 0 .81.81 0 0 0-.008-1.536l-2.747-1.586a2.94 2.94 0 0 0-2.662 0 .81.81 0 0 0 .008 1.537zm6.877 3.97l2.747 1.586a2.94 2.94 0 0 0 2.662 0 .81.81 0 0 0-.008-1.537l-2.747-1.586a2.94 2.94 0 0 0-2.662 0 .81.81 0 0 0 .008 1.538zm6.877 3.97l2.747 1.586a2.94 2.94 0 0 0 2.662.005.81.81 0 0 0-.008-1.537l-2.747-1.586a2.94 2.94 0 0 0-2.662 0 .81.81 0 0 0 .007 1.533zm6.876 3.97l2.747 1.586a2.94 2.94 0 0 0 2.662.005.81.81 0 0 0-.008-1.537l-2.747-1.586a2.94 2.94 0 0 0-2.662-.005.81.81 0 0 0 .007 1.537zm6.877 3.97l2.747 1.586a2.94 2.94 0 0 0 2.662.005.81.81 0 0 0-.008-1.537l-2.747-1.586a2.94 2.94 0 0 0-2.662-.005.81.81 0 0 0 .007 1.539zm6.877 3.97l2.747 1.586a2.94 2.94 0 0 0 2.662.005.81.81 0 0 0-.008-1.537l-2.747-1.586a2.94 2.94 0 0 0-2.662-.005.81.81 0 0 0 .009 1.539zm6.877 3.97l2.747 1.586a2.94 2.94 0 0 0 2.662.005.81.81 0 0 0-.008-1.537l-2.747-1.586a2.94 2.94 0 0 0-2.662-.005.81.81 0 0 0 .006 1.539zm6.877 3.97l2.747 1.586a2.94 2.94 0 0 0 2.662.005.81.81 0 0 0-.008-1.537l-2.754-1.584a2.94 2.94 0 0 0-2.662-.005.81.81 0 0 0 .012 1.537zm7.019 4.052l2.747 1.586a2.94 2.94 0 0 0 2.662.005.81.81 0 0 0-.008-1.536l-2.747-1.586a2.94 2.94 0 0 0-2.662 0 .81.81 0 0 0 .005 1.534zm-91.9-45.7l2.378 1.373c.951.485 2.077.487 3.03.005l2.364-1.364c.374-.129.624-.483.622-.879a.92.92 0 0 0-.632-.871l-2.378-1.372a3.35 3.35 0 0 0-3.03-.006l-2.363 1.365c-.375.129-.625.482-.623.878a.92.92 0 0 0 .632.871zm12.284 5.349l2.363-1.364c.375-.128.627-.482.625-.878s-.257-.747-.634-.872l-2.378-1.372a3.35 3.35 0 0 0-3.03-.006l-2.363 1.365c-.375.129-.625.482-.623.878a.92.92 0 0 0 .632.871l2.378 1.373a3.35 3.35 0 0 0 3.031.005zm1.469 2.592l2.378 1.373c.951.485 2.077.487 3.03.005l2.363-1.364c.374-.129.625-.482.623-.878s-.256-.747-.632-.872l-2.378-1.372a3.35 3.35 0 0 0-3.03-.006l-2.364 1.365c-.374.129-.623.483-.621.878s.257.745.632.87zm6.876 3.97l2.378 1.373c.951.485 2.077.487 3.03.005l2.363-1.364c.374-.129.625-.482.623-.878s-.256-.747-.632-.872l-2.378-1.372a3.35 3.35 0 0 0-3.03-.006l-2.363 1.365a.92.92 0 0 0-.624.877c.002.396.256.747.632.872zm14.638 2.235l-2.378-1.373a3.35 3.35 0 0 0-3.03-.005l-2.363 1.364c-.374.129-.625.482-.623.878s.256.747.632.872l2.378 1.373a3.35 3.35 0 0 0 3.03.005l2.363-1.364c.375-.128.627-.482.625-.878s-.257-.747-.634-.872zm6.877 3.97l-2.378-1.373c-.951-.485-2.077-.487-3.03-.005l-2.363 1.364c-.375.128-.627.482-.625.878s.257.747.634.872l2.378 1.372a3.35 3.35 0 0 0 3.03.006l2.363-1.365c.375-.129.625-.482.623-.878a.92.92 0 0 0-.632-.871zm6.877 3.97l-2.378-1.373c-.951-.485-2.077-.487-3.03-.005l-2.364 1.364c-.374.129-.624.483-.622.879a.92.92 0 0 0 .632.871l2.378 1.372a3.35 3.35 0 0 0 3.03.006l2.363-1.365c.375-.129.625-.482.623-.878a.92.92 0 0 0-.632-.871zm6.877 3.97l-2.378-1.373c-.951-.485-2.077-.487-3.03-.005l-2.364 1.364c-.374.129-.625.482-.623.878s.256.747.632.872l2.379 1.372a3.35 3.35 0 0 0 3.029.006l2.364-1.365c.374-.129.625-.482.623-.878s-.257-.746-.633-.871zm6.877 3.97l-2.379-1.373c-.951-.485-2.076-.487-3.029-.005l-2.363 1.364c-.374.129-.625.482-.623.878s.256.747.632.872l2.378 1.372a3.35 3.35 0 0 0 3.03.006l2.363-1.365a.92.92 0 0 0 .621-.878c-.003-.396-.256-.745-.631-.87zm6.876 3.969l-2.378-1.372a3.35 3.35 0 0 0-3.03-.006l-2.363 1.365c-.375.129-.625.482-.623.878a.92.92 0 0 0 .632.871l2.378 1.373c.951.485 2.077.487 3.03.005l2.364-1.364c.373-.13.623-.483.62-.878s-.256-.745-.631-.871zm-.885 5.705l2.378 1.373c.951.485 2.077.487 3.03.005l2.363-1.364c.375-.128.627-.482.625-.878s-.257-.747-.634-.872l-2.378-1.372a3.35 3.35 0 0 0-3.03-.006l-2.363 1.365c-.375.128-.627.481-.625.878s.257.748.633.872zm14.638 2.235l-2.376-1.367a3.35 3.35 0 0 0-3.03-.006l-2.364 1.365c-.374.129-.625.482-.623.878s.257.746.633.871l2.378 1.373c.951.485 2.077.487 3.03.005l2.363-1.364c.377-.128.63-.483.627-.881s-.26-.75-.639-.873zm10.071 5.815l-5.43-3.136c-.951-.485-2.077-.487-3.03-.005l-2.364 1.364c-.374.129-.624.483-.622.879a.92.92 0 0 0 .632.871l5.43 3.135a3.35 3.35 0 0 0 3.03.006l2.363-1.365c.373-.13.622-.482.62-.877a.92.92 0 0 0-.63-.87zm-99.847-44.072l5.43 3.135a3.35 3.35 0 0 0 3.03.006l2.364-1.365c.375-.129.625-.482.623-.878a.92.92 0 0 0-.632-.871l-5.431-3.136c-.951-.485-2.076-.487-3.029-.005l-2.363 1.364c-.374.129-.625.482-.623.878s.256.747.631.872zm9.928 5.732l2.378 1.372a3.35 3.35 0 0 0 3.03.006l2.364-1.365c.374-.129.625-.482.623-.878s-.257-.746-.633-.871l-2.378-1.373c-.951-.485-2.077-.487-3.03-.005l-2.363 1.364c-.374.13-.624.484-.621.88s.258.746.634.87zm9.255 5.343c.951.485 2.077.487 3.03.005l2.363-1.364c.375-.128.627-.482.625-.878s-.257-.747-.634-.872l-2.378-1.372a3.35 3.35 0 0 0-3.03-.006l-2.359 1.365c-.375.129-.625.482-.623.878a.92.92 0 0 0 .632.871zm6.877 3.97c.951.485 2.077.487 3.03.005l2.363-1.364c.374-.129.625-.482.623-.878s-.256-.747-.632-.872l-2.378-1.372a3.35 3.35 0 0 0-3.03-.006l-2.364 1.365c-.374.129-.625.482-.623.878s.257.746.633.871zm6.852-.517l-2.364 1.365c-.375.129-.625.482-.623.878a.92.92 0 0 0 .632.871l2.379 1.373c.951.485 2.076.487 3.029.005l2.364-1.364c.374-.129.625-.482.623-.878s-.256-.747-.632-.872l-2.378-1.372a3.35 3.35 0 0 0-3.027-.006zm7.021 3.886l-2.654 1.532c-.339.116-.566.435-.564.793s.232.675.572.788l2.671 1.542c.86.438 1.877.44 2.738.005l2.654-1.532c.339-.116.566-.436.564-.794s-.233-.675-.573-.787l-2.671-1.542c-.859-.437-1.874-.438-2.734-.004zm6.877 3.97l-2.654 1.532c-.338.116-.565.435-.563.793s.231.674.571.787l2.67 1.542c.86.438 1.877.44 2.738.005l2.654-1.532c.338-.116.565-.435.563-.793s-.231-.674-.571-.787l-2.671-1.542c-.86-.435-1.875-.435-2.734.001zm6.877 3.97l-2.654 1.532c-.338.116-.565.435-.563.793s.231.674.571.787l2.67 1.542c.86.438 1.877.44 2.738.005l2.654-1.532c.338-.116.565-.435.563-.793s-.231-.674-.571-.787l-2.671-1.542c-.859-.437-1.875-.438-2.735-.004zm6.877 3.97l-2.654 1.531c-.338.117-.564.436-.562.794s.231.674.571.787l2.671 1.542c.86.438 1.877.44 2.738.005l2.654-1.532c.338-.116.565-.435.563-.793s-.231-.674-.571-.787l-2.674-1.541c-.859-.436-1.874-.438-2.734-.004zm6.877 3.969l-2.654 1.532c-.338.117-.564.436-.562.793s.231.674.57.788l2.67 1.542c.86.438 1.877.44 2.738.005l2.654-1.532c.338-.116.565-.435.563-.793s-.231-.674-.571-.787l-2.671-1.542a3.03 3.03 0 0 0-2.735-.009zm9.639 8.63l2.654-1.532c.338-.117.564-.436.562-.793s-.231-.674-.57-.788l-2.671-1.542c-.86-.438-1.877-.44-2.738-.005l-2.654 1.532c-.338.117-.564.436-.562.793s.231.674.57.788l2.671 1.542c.86.439 1.878.442 2.74.007zm6.877 3.97l2.654-1.532c.338-.117.564-.436.562-.793s-.231-.674-.57-.788l-2.671-1.542c-.86-.438-1.877-.44-2.738-.005l-2.654 1.532c-.338.117-.564.436-.562.793s.231.674.57.788l2.67 1.542a3.03 3.03 0 0 0 2.741.008zm9.665.939l-2.67-1.542c-.86-.438-1.877-.44-2.738-.005l-2.654 1.532c-.338.116-.565.435-.563.793s.231.674.571.787l2.67 1.542c.86.438 1.877.44 2.738.005l2.654-1.532c.336-.117.56-.435.559-.791s-.229-.672-.566-.786zm-100.134-44.242l8.622 4.977c.86.438 1.877.44 2.738.005l2.654-1.532c.339-.116.566-.435.564-.793s-.232-.675-.572-.788l-8.621-4.978c-.86-.438-1.877-.44-2.738-.005l-2.654 1.532c-.339.116-.566.435-.564.794s.231.675.571.788zm12.828 7.406l2.671 1.542c.86.438 1.877.44 2.738.005l2.654-1.532c.338-.117.564-.436.562-.793s-.231-.674-.57-.788l-2.671-1.54c-.86-.438-1.877-.44-2.738-.005l-2.654 1.532c-.339.116-.565.436-.564.794s.232.675.572.788zm6.877 3.97l2.67 1.542c.86.438 1.877.44 2.738.005l2.654-1.532c.338-.117.564-.436.562-.793s-.231-.674-.57-.788l-2.671-1.542c-.86-.438-1.877-.44-2.738-.005l-2.654 1.532a.84.84 0 0 0-.567.795c.001.359.233.677.575.789zm6.877 3.97l2.67 1.542a3.03 3.03 0 0 0 2.739.005l2.654-1.532c.338-.117.564-.436.562-.793s-.231-.674-.57-.788l-2.671-1.542c-.86-.438-1.877-.44-2.738-.005l-2.654 1.532c-.34.115-.569.435-.567.795s.233.677.574.789zm12.284 5.517l2.654-1.532c.338-.117.564-.436.562-.794s-.231-.674-.571-.787l-2.671-1.542c-.86-.438-1.877-.44-2.738-.005l-2.654 1.532c-.339.116-.566.435-.564.793s.232.675.572.788l2.67 1.542a3.03 3.03 0 0 0 2.739.008zm6.877 3.969l2.654-1.531c.338-.117.564-.436.562-.793s-.231-.674-.57-.788l-2.67-1.542c-.86-.438-1.877-.44-2.738-.005l-2.654 1.532c-.338.116-.565.435-.563.793s.231.674.571.787l2.67 1.542a3.03 3.03 0 0 0 2.737.008zm6.877 3.97l2.654-1.532c.339-.116.566-.435.564-.793s-.232-.675-.572-.788l-2.671-1.542c-.86-.438-1.877-.44-2.738-.005l-2.654 1.532c-.338.116-.565.435-.563.793s.231.674.571.787l2.671 1.542c.859.439 1.875.443 2.737.01zm6.877 3.97l2.654-1.532c.339-.116.566-.435.564-.793s-.232-.675-.572-.788l-2.67-1.542c-.86-.438-1.877-.44-2.738-.005l-2.654 1.532c-.338.116-.565.435-.563.793s.231.674.571.787l2.67 1.542c.858.439 1.875.443 2.736.01zm6.876 3.97l2.654-1.532c.339-.116.566-.435.564-.793s-.232-.675-.572-.788l-2.671-1.542a3.03 3.03 0 0 0-2.738 0l-2.654 1.531c-.338.117-.564.436-.562.793s.231.674.57.788l2.671 1.542c.859.438 1.875.439 2.736.005zm6.877 3.97l2.654-1.532c.339-.116.566-.436.564-.794s-.233-.675-.573-.787l-2.67-1.542c-.86-.438-1.877-.44-2.738-.005l-2.654 1.532c-.338.117-.564.436-.562.793s.231.674.57.788l2.67 1.542c.859.439 1.875.443 2.737.009zm1.468 2.424l2.671 1.542c.86.438 1.877.44 2.738.005l2.654-1.532c.338-.117.564-.436.562-.793s-.231-.674-.57-.788l-2.671-1.542c-.86-.438-1.877-.44-2.738-.005l-2.654 1.532c-.341.114-.571.433-.571.793s.231.679.573.792zm19.05 4.782l-6.79-3.92c-.86-.438-1.877-.44-2.738-.005l-2.654 1.532c-.338.117-.564.436-.562.793s.231.674.57.788l6.79 3.92a3.03 3.03 0 0 0 2.738.005l2.654-1.532c.335-.119.558-.437.555-.792s-.229-.67-.565-.785zm-100.111-44.048l12.233 7.063a3.42 3.42 0 0 0 3.093.006l2.3-1.328c.382-.132.637-.493.635-.897a.94.94 0 0 0-.645-.889l-12.233-7.063a3.42 3.42 0 0 0-3.093-.006l-2.3 1.328c-.382.132-.637.493-.635.897a.94.94 0 0 0 .645.889zm16.795 9.7l2.314 1.336a3.42 3.42 0 0 0 3.093.006l2.3-1.328c.382-.132.637-.493.635-.897a.94.94 0 0 0-.645-.889l-2.314-1.336a3.42 3.42 0 0 0-3.092-.006l-2.3 1.328a.94.94 0 0 0-.631.895.94.94 0 0 0 .64.888zm6.877 3.97l2.314 1.336a3.42 3.42 0 0 0 3.093.006l2.3-1.328c.382-.132.637-.493.635-.897a.94.94 0 0 0-.645-.889l-2.314-1.336a3.42 3.42 0 0 0-3.093-.006l-2.3 1.328c-.38.133-.633.493-.631.895s.26.759.641.888zm6.877 3.97l2.314 1.336a3.42 3.42 0 0 0 3.092.006l2.3-1.328a.94.94 0 0 0-.009-1.785l-2.314-1.339c-.971-.495-2.12-.497-3.093-.005l-2.3 1.328c-.38.133-.634.493-.632.896a.94.94 0 0 0 .642.888zm6.877 3.97l2.314 1.336a3.42 3.42 0 0 0 3.093.006l2.3-1.328c.382-.132.638-.492.636-.896s-.261-.762-.645-.89l-2.314-1.336c-.971-.495-2.12-.497-3.093-.005l-2.3 1.328a.94.94 0 0 0-.63.894c.002.402.258.758.638.888zm6.876 3.97l2.314 1.336c.971.495 2.12.497 3.093.005l2.3-1.328c.382-.132.637-.493.635-.897a.94.94 0 0 0-.645-.889l-2.314-1.336c-.971-.495-2.12-.497-3.092-.005l-2.3 1.328c-.38.133-.633.492-.632.894s.259.759.64.889zm6.877 3.97l2.314 1.336c.971.495 2.12.497 3.093.005l2.3-1.328c.382-.132.637-.493.635-.897a.94.94 0 0 0-.645-.889l-2.314-1.336a3.42 3.42 0 0 0-3.093-.006l-2.3 1.328c-.381.132-.636.492-.634.896a.94.94 0 0 0 .643.889zm6.877 3.969l2.314 1.337c.971.495 2.12.497 3.093.005l2.3-1.328c.382-.132.638-.492.636-.896s-.261-.762-.645-.89l-2.314-1.336a3.42 3.42 0 0 0-3.093-.006l-2.3 1.328a.94.94 0 0 0 .008 1.784zm6.877 3.97l2.314 1.337a3.42 3.42 0 0 0 3.092.005l2.3-1.328c.382-.132.638-.492.636-.896s-.261-.762-.645-.89l-2.314-1.336a3.42 3.42 0 0 0-3.093-.006l-2.3 1.328a.94.94 0 0 0 .008 1.784zm6.876 3.97l2.314 1.336a3.42 3.42 0 0 0 3.093.006l2.3-1.328c.382-.132.638-.492.636-.896s-.261-.762-.645-.89l-2.314-1.336a3.42 3.42 0 0 0-3.093-.006l-2.3 1.328c-.381.132-.635.492-.634.894s.259.76.641.89zm6.877 3.97l2.314 1.336a3.42 3.42 0 0 0 3.093.006l2.3-1.328c.382-.132.637-.493.635-.897a.94.94 0 0 0-.645-.889l-2.314-1.336a3.42 3.42 0 0 0-3.092-.006l-2.3 1.328c-.383.131-.64.491-.639.896a.94.94 0 0 0 .645.891zm14.727 2.287l-2.314-1.336a3.42 3.42 0 0 0-3.093-.006l-2.3 1.328c-.382.132-.638.492-.636.896s.261.762.645.89l2.314 1.336a3.42 3.42 0 0 0 3.093.006l2.3-1.328c.383-.131.64-.493.638-.898a.94.94 0 0 0-.649-.89zm-89.03-44.047l-5.366-3.1c-.971-.495-2.12-.497-3.093-.005l-2.3 1.328c-.382.132-.637.493-.635.897a.94.94 0 0 0 .645.889l5.366 3.1c.971.495 2.12.497 3.093.005l2.3-1.328a.94.94 0 0 0 .637-.898c-.003-.405-.264-.763-.649-.89zm6.877 3.97l-2.314-1.336a3.42 3.42 0 0 0-3.093-.006l-2.3 1.328c-.382.132-.637.493-.635.897a.94.94 0 0 0 .645.889l2.314 1.336a3.42 3.42 0 0 0 3.093.006l2.3-1.328c.382-.133.637-.494.634-.899s-.265-.762-.649-.888zm6.877 3.97l-2.314-1.336a3.42 3.42 0 0 0-3.093-.006l-2.3 1.328c-.382.132-.637.493-.635.897a.94.94 0 0 0 .645.889l2.314 1.336a3.42 3.42 0 0 0 3.092.006l2.3-1.328c.383-.132.638-.493.636-.898a.94.94 0 0 0-.648-.889zm48.135 27.791l-43.573-25.156a3.42 3.42 0 0 0-3.093-.006l-2.3 1.328c-.382.132-.638.492-.636.896s.261.762.645.89l43.573 25.157c.971.495 2.12.497 3.093.005l2.3-1.328a.94.94 0 0 0 .637-.898c-.003-.405-.264-.763-.649-.89zm6.877 3.97l-2.314-1.336a3.42 3.42 0 0 0-3.093-.006l-2.3 1.328c-.382.132-.637.493-.635.897a.94.94 0 0 0 .645.889l2.314 1.336a3.42 3.42 0 0 0 3.093.006l2.3-1.328c.382-.132.638-.494.635-.899a.94.94 0 0 0-.649-.888zm6.877 3.97l-2.314-1.336a3.42 3.42 0 0 0-3.093-.006l-2.3 1.328c-.382.132-.637.493-.635.897a.94.94 0 0 0 .645.889l2.314 1.336a3.42 3.42 0 0 0 3.092.006l2.3-1.328c.382-.132.638-.494.635-.898s-.264-.762-.648-.889zm7.02 4.052l-2.314-1.336c-.971-.495-2.12-.497-3.093-.005l-2.3 1.328c-.382.132-.637.493-.635.897a.94.94 0 0 0 .645.889l2.306 1.335c.971.495 2.12.497 3.092.005l2.3-1.328c.382-.131.639-.491.638-.895s-.26-.762-.643-.891zm37.567-18.829l-91.091-52.623c-3.526-2.036-6.385-7.5-6.385-12.2V7.181c0-4.7 2.859-6.864 6.385-4.828l91.093 52.623c3.526 2.036 6.385 7.5 6.385 12.2v71.46c-.002 4.703-2.861 6.864-6.387 4.828z" class="B"/><path d="M254.438 139.791l-90.121-52.055a10.86 10.86 0 0 1-4.593-9.1V6.833a1.13 1.13 0 0 1 1.7-.975l.2.117 90.193 52.106c3.378 1.947 4.593 5.408 4.593 9.1v71.639a1.22 1.22 0 0 1-1.827 1.061z" class="F"/><path d="M251.822 58.081L161.629 5.973l-.2-.117a1.13 1.13 0 0 0-1.7.975v71.806a10.86 10.86 0 0 0 4.593 9.1l90.121 52.055.15.086a1.22 1.22 0 0 0 1.827-1.061V67.173c-.005-3.684-1.22-7.145-4.598-9.092zm3.875 80.735a.51.51 0 0 1-.507.506.5.5 0 0 1-.248-.068l-90.266-52.14c-2.729-1.949-4.315-5.123-4.235-8.475V6.833c.001-.23.187-.415.417-.415a.41.41 0 0 1 .208.059l90.4 52.224c3.5 2.018 4.235 5.722 4.235 8.475z" fill="#022652"/><path d="M255.426 54.014L164.334 1.391a4.32 4.32 0 0 0-3.737-.548c-.134.052-1.914 1-2.04 1.066h-.006c1.313-.538 2.808-.372 3.972.439l91.093 52.623c3.526 2.036 6.385 7.5 6.385 12.2v71.46c0 2.934-1.114 4.879-2.808 5.431.201-.009.395-.075.56-.19l2.09-1.191c1.213-.85 1.969-2.6 1.969-5.012v-71.46c-.001-4.696-2.86-10.158-6.386-12.195z" class="C"/><path d="M255.426 54.014L164.334 1.391a4.32 4.32 0 0 0-3.737-.548c-.134.052-1.914 1-2.04 1.066h-.006c1.313-.538 2.808-.372 3.972.439l91.093 52.623z" fill="#4f9fdb"/><path d="M253.922 54.823L162.83 2.2c-1.127-.775-2.56-.958-3.846-.491a4.71 4.71 0 0 1 3.08.721l91.092 52.621c3.526 2.036 6.385 7.5 6.385 12.2v71.46c0 2.774-1 4.654-2.539 5.319 1.97-.313 3.306-2.336 3.306-5.549v-71.46c-.002-4.7-2.859-10.162-6.386-12.198z" style="mix-blend-mode:screen" class="H"/><path d="M245.949 58.487L169.8 15.216c-.194 10.137-.019 41.9-.075 52.279-.092 16.806-2.606 30.042-22.007 45.227-6.173 4.832-33.409 19.669-55.509 31.283-8.966 4.711-9.647 6.7-14.181 10.54-4.393 3.722-11.133 7.181-13.1 8.329l75.645 43.742c1.414-.839 8.773-4.53 13.605-8.624 4.534-3.841 5.215-7.936 14.181-12.648 22.1-11.613 59.965-34.868 66.687-38.9 8.624-5.174 10.83-8.432 10.83-22.038l.073-65.919z" opacity=".1" class="K"/><path d="M245.95 58.794l-76.149-43.271c-.194 4.848-.019 45.057-.075 55.436-.092 16.806-2.606 21.6-22.007 36.781-6.173 4.832-33.409 19.669-55.509 31.283-8.966 4.711-10.413 10.723-14.947 14.564-4.394 3.722-9.266 4.739-11.237 5.888l75.645 43.741c1.414-.838 6.905-2.088 11.738-6.182 4.534-3.841 5.981-9.852 14.947-14.564 22.1-11.613 49.336-26.451 55.509-31.283 19.4-15.185 21.915-19.975 22.007-36.781l.078-55.612z" class="H"/><path d="M177.384 32.163l61.609 35.07v20.386L177.384 52.55V32.163zm-1.221-2.1v23.2l64.05 36.459V66.526l-64.05-36.459z" class="I"/><path d="M176.38 58.846v11.926l27.131 15.444V74.29zm43.973 87.857c15.647-12.247 18.959-16.529 19.648-26.493l-26.2-14.754c-.737 9.749-4.137 14.07-19.624 26.192zM166.33 98.916q-.72.794-1.517 1.606l37.116 20.777q.856-.8 1.61-1.554zm-10.069 9.283q-.869.713-1.789 1.454l36.737 20.565.258-.2 1.571-1.236zm54.551-1.819l.271-2.454L174.457 83.3l-.562 2.414zm-51.01-1.171q-.836.729-1.733 1.486l36.823 20.614 1.79-1.454zm11.661-13.367q-.5.931-1.086 1.849l37.416 20.944a20.25 20.25 0 0 0 1.069-1.858zm1.767-3.982q-.36 1.022-.8 2.008l37.306 20.884a19.98 19.98 0 0 0 .635-2.1zm-10.046 14.268q-.789.755-1.647 1.534l36.949 20.683q.9-.766 1.725-1.491zm5.948-6.617q-.627.852-1.333 1.71l37.3 20.879 1.4-1.67zm-82.091 56.064c-1.449 2.1-3.141 4.022-5.042 5.724a27.52 27.52 0 0 1-2.711 2.023l64.06 36.8a25.71 25.71 0 0 0 7.607-4.178 23.19 23.19 0 0 0 3.263-3.832zm33.854 7.951l21.952-11.715-26.72-14.928-22.22 11.862zm63.645 7.856l2.229-1.2-65.187-36.433q-1.114.61-2.223 1.214zm-58.473-40.103q-1.1.611-2.213 1.222l65.2 36.435q1.125-.611 2.221-1.211zm8.886-4.984q-1.076.614-2.183 1.239l65.254 36.476 2.2-1.224zm-4.427 2.502q-1.091.611-2.2 1.23l65.226 36.453 2.21-1.217zm17.328-10.219q-.955.622-2.057 1.31l65.442 36.6q1.12-.66 2.128-1.264zm-4.203 2.627l-2.124 1.273 65.351 36.541 2.161-1.245zm-4.316 2.563q-1.055.617-2.159 1.252l65.293 36.5q1.119-.63 2.182-1.233zm-9.585 39.508l-2.259 1.2 34.443 19.25q.95-.67 2.029-1.322zm4.562-2.425l-2.253 1.2 34.151 19.09 2.26-1.191zm-9.138 4.845l-1.437.756-.829.435 35.418 19.791q.792-.753 1.7-1.5zm18.22-9.72q-1.13.611-2.239 1.208l34.195 19.121q1.134-.6 2.249-1.2zm-4.534 2.441q-1.144.614-2.247 1.2l34.177 19.107 2.255-1.195zm9.054-4.89l-2.177 1.181-.056.03 34.218 19.139 2.243-1.2zm28.249-72.601l64.147 36.306v-2.656l-64.147-36.305zm30.436 6.865l33.715 19.079v-2.656l-33.711-19.079zm0-8.057v2.877l33.715 19.078v-2.767zm0 13.237l33.711 19.08v-2.656l-33.711-19.079z" class="B"/><path d="M302.559 33.282c-7.949-4.589-15.187-5.282-20.62-2.708l-4.371 2.476v.022c5.422-2.519 12.621-1.805 20.522 2.756 16.863 9.737 30.535 33.317 30.535 52.667 0 9.393-3.222 16.063-8.466 19.327l2.93-1.712c6.146-2.861 10-9.879 10-20.161.001-19.351-13.67-42.931-30.53-52.667z" class="K"/><path d="M298.087 35.827c-16.864-9.737-30.535-1.942-30.535 17.409s13.67 42.932 30.535 52.668 30.535 1.942 30.535-17.41-13.672-42.93-30.535-52.667z" fill="url(#A)"/><path d="M298.54 35.569c-8.553-4.938-16.283-5.364-21.826-2.063 5.508-3.016 13.051-2.483 21.373 2.322 16.863 9.737 30.535 33.316 30.535 52.667 0 9.538-3.322 16.265-8.709 19.473 5.653-3.1 9.161-9.93 9.161-19.731 0-19.351-13.671-42.932-30.534-52.668z" class="G"/><ellipse cx="24.853" cy="43.049" rx="24.853" ry="43.049" transform="matrix(.863 -.505 .505 .863 254.905 46.245)" class="F"/><ellipse cx="23.508" cy="40.718" rx="23.508" ry="40.718" transform="matrix(.863 -.505 .505 .863 257.243 47.578)" class="M"/><ellipse cx="20.119" cy="34.849" rx="20.119" ry="34.849" transform="matrix(.863299 -.504693 .504693 .863299 263.13 50.935)" class="E"/><ellipse cx="16.307" cy="28.246" rx="16.307" ry="28.246" transform="matrix(.863 -.505 .505 .863 269.754 54.711)" class="M"/><ellipse cx="12.707" cy="22.01" rx="12.707" ry="22.01" transform="matrix(.863 -.505 .505 .863 276.009 58.278)" class="E"/><ellipse cx="9.318" cy="16.14" rx="9.318" ry="16.14" transform="matrix(.863299 -.504693 .504693 .863299 281.896 61.635)" class="M"/><path d="M298.532 103.728c-15.951-9.209-28.881-31.512-28.881-49.817 0-8.738 2.949-14.982 7.765-18.123-5.08 3.04-8.21 9.4-8.21 18.4 0 18.3 12.93 40.607 28.882 49.816 8.335 4.813 15.845 5.095 21.117 1.657-5.247 3.143-12.569 2.746-20.673-1.933zm.001-10.151c-11.065-6.388-20.035-21.859-20.035-34.557 0-6.085 2.064-10.422 5.427-12.593-3.628 2.066-5.873 6.52-5.873 12.871 0 12.7 8.97 28.169 20.035 34.557 5.762 3.327 10.953 3.528 14.607 1.169-3.623 2.065-8.631 1.746-14.161-1.447zm0-9.847c-6.323-3.651-11.449-12.492-11.449-19.747 0-3.383 1.115-5.822 2.945-7.094-2.094 1.172-3.391 3.723-3.391 7.372 0 7.255 5.126 16.1 11.449 19.747 3.375 1.949 6.408 2.024 8.5.567-2.066 1.155-4.912.965-8.054-.845z" class="B"/><path d="M305.113 74.925c0 4.452-3.146 6.246-7.026 4.006a15.48 15.48 0 0 1-7.025-12.118c0-4.452 3.146-6.245 7.025-4a15.48 15.48 0 0 1 7.026 12.112z" fill="#eb4680"/><path d="M298.683 70.962c0 .266-.187.372-.418.239a.92.92 0 0 1-.418-.721c0-.265.187-.371.418-.238a.92.92 0 0 1 .418.72z" fill="#231f20" opacity=".5"/><path d="M298.087 62.805a5.23 5.23 0 0 0-4.589-.689c1.432-.266 2.911.037 4.122.845a15.48 15.48 0 0 1 7.025 12.117c0 2.439-.945 4.078-2.435 4.695 1.758-.45 2.9-2.166 2.9-4.851a15.48 15.48 0 0 0-7.023-12.117z" fill="#f779a5"/><path d="M237.798 106.107l-2.6-.351a1.32 1.32 0 0 1-.172-2.579l14.6-3.99z" class="I"/><path d="M237.902 105.851l-2.6-.351a1.31 1.31 0 0 1-1.1-1.676 1.32 1.32 0 0 0 .991 1.931l2.6.351 11.822-6.92-.626.171z" class="L"/><path d="M235.257 105.576l2.6.351 11.3-6.614-.166.046-11.095 6.494-2.6-.351a1.31 1.31 0 0 1-1.092-1.676c-.015.029-.029.059-.041.09-.107.367-.047.763.164 1.083s.551.531.93.577z" class="H"/><path d="M298.486 70.808c.005.047-.015.093-.053.121-1.427 1.679-3.157 3.074-5.1 4.113l-6 3.2c-.14.078-.052-.1-.26-.216a1.67 1.67 0 0 1-.759-1.308c0-.238-.22-.239-.085-.319a47.75 47.75 0 0 1 5.781-3.584 17.01 17.01 0 0 1 6.161-2.348c.044-.019.094-.014.133.014a.42.42 0 0 1 .182.327z" class="I"/><path d="M287.519 77.767c0 .481-.34.674-.759.432a1.67 1.67 0 0 1-.759-1.307c0-.481.339-.675.759-.433.447.29.729.776.759 1.308z" class="L"/><path d="M287.365 77.786a.51.51 0 0 1-.2.46l-50.17 29.384c-.13.073-.047-.093-.245-.207a1.6 1.6 0 0 1-.725-1.249c0-.228-.21-.229-.081-.3l50.191-29.389c.167-.071.359-.05.506.056a1.6 1.6 0 0 1 .724 1.245z" class="D"/><path d="M237.181 107.176c0 .459-.324.644-.724.413-.427-.277-.696-.74-.724-1.248 0-.459.324-.644.724-.414a1.6 1.6 0 0 1 .724 1.249z" class="C"/><path d="M237.363 105.15l12.075-6.956-9.424-.772c-1.609-.132-3.144.699-3.914 2.118s-.63 3.159.356 4.436z" class="L"/><path d="M237.554 105.112l12.075-6.957-9.424-.771c-1.609-.132-3.144.699-3.914 2.118s-.63 3.159.356 4.436z" class="I"/><path d="M236.825 104.015c-.987-1.278-1.127-3.017-.356-4.436s2.305-2.249 3.914-2.118l9.151.749.095-.054-9.424-.771c-1.609-.132-3.144.699-3.914 2.118s-.63 3.159.356 4.436l.907 1.175.083-.048z" class="H"/><path d="M238.128 106.568l.3 1.065a3.41 3.41 0 0 0 6.16.916l5.619-8.83z" class="L"/><path d="M238.315 106.415l.3 1.065a3.41 3.41 0 0 0 6.16.917l5.619-8.83z" class="I"/><path d="M244.873 108.219a3.41 3.41 0 0 1-6.16-.917l-.267-.961-.131.074.3 1.065a3.41 3.41 0 0 0 6.16.917l5.619-8.83-.019.01z" class="H"/><path d="M122.649 49.216l9.635-10.16a2.18 2.18 0 0 1 1.9-.7 1.83 1.83 0 0 1 .663.247l8.276 4.936c.724.432 1.168 1.213 1.168 2.056v9.045c-.002.225-.035.448-.1.663-.38 1.159-1.37 2.011-2.572 2.215l-13.133 2.509z" class="G"/><path d="M129.508 53.215v5.491c0 .491-.262.945-.687 1.191s-.949.246-1.375 0l-4.752-2.743c-.425-.246-.687-.7-.687-1.191v-5.582c0-.495.266-.951.696-1.196s.959-.238 1.383.016l4.752 2.834c.416.248.67.696.67 1.18z" class="D"/><path d="M129.158 57.402a2.36 2.36 0 0 1-.99 2.147c-.02.013-18.9 10.416-18.926 10.428-.775.433-1.231-.017-2.5-.747-2.335-1.348-4.227-4.334-4.227-6.669 0-1.146-.315-1.518.425-1.852.057-.025 19.07-10.494 19.129-10.514a3.57 3.57 0 0 1 2.858.538c2.338 1.348 4.231 4.338 4.231 6.669z" class="C"/><path d="M114.067 66.481c0 2.361-1.914 3.17-4.275 1.807s-4.275-4.383-4.275-6.745 1.914-3.17 4.275-1.807 4.275 4.383 4.275 6.745z"/><path d="M63.959 89.944v39.583l-20.512-11.84V77.711z" class="B"/><path d="M62.524 90.76L44.88 80.237v36.63l17.644 10.184z" class="D"/><path d="M63.901 89.945v39.585l55.424-31.91V57.641z" class="E"/><path d="M117.891 96.791V60.136L65.335 90.769v36.281z" class="G"/><path d="M119.326 57.641l-55.424 32.3-20.456-12.233 55.522-32.165z" class="J"/><path d="M116.499 57.629L98.96 47.21 46.273 77.732 63.912 88.28z" class="D"/><path d="M89.475 82.979v20.9l-2.816-1.588V81.289z" class="B"/><path d="M89.46 82.974v20.9l31.206-18.024V64.853z" class="E"/><path d="M120.666 64.853L89.46 82.976l-2.8-1.69 31.232-18.09z" class="J"/><path d="M66.597 55.78v27.592l-14.3-8.253V47.253z" class="B"/><path d="M66.558 55.78v27.593l34.344-19.788V35.717z" class="C"/><path d="M100.902 35.718L66.558 55.781 52.3 47.254l34.412-19.966z" fill="url(#B)"/><ellipse cx="25.351" cy="14.342" rx="25.351" ry="14.342" transform="matrix(.601104 -.799171 .799171 .601104 64.272 40.52)" class="B"/><ellipse cx="25.351" cy="14.342" rx="25.351" ry="14.342" transform="matrix(.601 -.799 .799 .601 65.628 41.13)" class="E"/><path d="M74.196 40.714c0 4.565 1.641 7.8 4.366 9.466.09.056 12.326 7.011 12.419 7.064 3.415 1.908 5.43-.075 11-3.294 10.291-5.942 18.635-19.1 18.635-29.394 0-5.053 1.388-6.693-1.877-8.164-.247-.111-13.053-7.353-13.314-7.441-3.317-1.13-7.741-.435-12.6 2.37-10.286 5.941-18.629 19.101-18.629 29.393z" class="F"/><ellipse cx="25.351" cy="14.342" rx="25.351" ry="14.342" transform="matrix(.601104 -.799171 .799171 .601104 76.665 47.253)" class="B"/><ellipse cx="25.351" cy="14.342" rx="25.351" ry="14.342" transform="matrix(.601104 -.799171 .799171 .601104 77.924 48.052)" class="E"/><ellipse cx="21.545" cy="12.189" rx="21.545" ry="12.189" transform="matrix(.601 -.799 .799 .601 81.972 46.389)" class="C"/><path d="M114.347 17.912c3.452.979 5.64 4.114 5.64 9.026 0 8.95-7.255 20.394-16.2 25.562-3.63 2.1-6.982 2.836-9.683 2.38 2.838.805 6.527.155 10.564-2.177 8.95-5.167 16.206-16.611 16.206-25.561-.005-5.32-2.569-8.561-6.527-9.23z" class="D"/><path d="M98.903 39.116c-.092 1.002.357 1.976 1.179 2.556l2.241 1.273c.923.515 1.466-.02 2.972-.89 2.78-1.6 5.032-5.157 5.032-7.937 0-1.364.375-1.807-.507-2.2-.066-.03-2.412-1.351-2.482-1.375-1.173-.279-2.409-.047-3.4.64-2.782 1.6-5.035 5.153-5.035 7.933z" class="B"/><path d="M101.079 40.357c0 2.78 2.254 3.732 5.032 2.127s5.032-5.157 5.032-7.937-2.254-3.731-5.032-2.127-5.032 5.158-5.032 7.937z" class="E"/><use xlink:href="#C" class="G"/><path d="M108.377 32.844c.599.469.921 1.208.857 1.966a8.25 8.25 0 0 1-3.977 6.273 3.72 3.72 0 0 1-2.307.59c.728.5 1.854.446 3.12-.285a8.25 8.25 0 0 0 3.977-6.274c.154-1.085-.588-2.094-1.67-2.27z" class="F"/><path d="M59.656 105.916a4.04 4.04 0 0 1-1.694 3.672l-3.218 1.829c-1.325.74-2.106-.03-4.269-1.278-3.992-2.305-7.228-7.41-7.228-11.4 0-1.959-.539-2.6.728-3.167.1-.043 3.465-1.941 3.565-1.975a6.1 6.1 0 0 1 4.888.919c3.993 2.303 7.228 7.408 7.228 11.4z" class="C"/><ellipse cx="5.437" cy="9.61" rx="5.437" ry="9.61" transform="matrix(.799 -.601 .601 .799 39.187 99.115)" class="E"/><g class="G"><path d="M54.171 107.579a3.4 3.4 0 0 1-1.424 3.088c-.03.018-13.122 7.369-13.152 7.386-1.115.622-1.772-.025-3.59-1.075-3.358-1.938-6.079-6.231-6.079-9.589 0-1.649-.453-2.183.612-2.664.08-.036 13.358-7.48 13.444-7.509a5.13 5.13 0 0 1 4.11.773c3.357 1.94 6.079 6.233 6.079 9.59z"/><path d="M2.462 101.163l34.461-.173a2.25 2.25 0 0 1 1.47.178l6.367 3.8c.558.332.899.933.9 1.582v6.958a3.7 3.7 0 0 1-.916 1.992L27.89 144.853z"/></g><path d="M112.487 86.063V74.527l-16.656 9.588v11.607z" class="F"/><path d="M100.335 80.381v-1.55l-4.022 2.406v1.541z" class="C"/><path d="M100.59 80.483v-1.551l-4.022 2.406v1.541z" class="B"/><path d="M105.752 77.177v-1.55l-4.022 2.406v1.541z" class="C"/><path d="M106.006 77.279v-1.551l-4.022 2.406v1.541z" class="B"/><path d="M111.193 73.974v-1.55l-4.022 2.406v1.541z" class="C"/><path d="M111.448 74.074v-1.55l-4.022 2.406v1.544z" class="B"/><path d="M100.335 95.409v-1.551l-4.022 2.406v1.541z" class="C"/><path d="M100.59 95.511v-1.55l-4.022 2.406v1.541z" class="B"/><path d="M105.752 92.205v-1.551l-4.022 2.41v1.541z" class="C"/><path d="M106.006 92.307v-1.551l-4.022 2.406v1.541z" class="B"/><path d="M111.193 89.001v-1.552l-4.022 2.406v1.541z" class="C"/><path d="M111.448 89.104v-1.551l-4.022 2.406V91.5z" class="B"/><path d="M111.911 74.859v10.933l-16.08 9.326v.606l16.656-9.66V74.527z" class="K"/><path d="M113.811 75.811a1.97 1.97 0 0 1 .894-1.542.62.62 0 0 1 .646-.056l.479.26-.175.3v.05a1.97 1.97 0 0 1-.895 1.542l-.068.036-.145.243-.4-.222a.58.58 0 0 1-.336-.611z" class="C"/><path d="M114.276 76.064c0 .567.4.795.894.51a1.97 1.97 0 0 0 .898-1.542c0-.567-.4-.795-.894-.51a1.97 1.97 0 0 0-.898 1.542z" class="B"/><path d="M113.811 80.03a1.97 1.97 0 0 1 .894-1.542.62.62 0 0 1 .646-.055l.479.26-.175.3v.05a1.97 1.97 0 0 1-.895 1.542c-.023.014-.046.025-.068.036l-.145.244-.4-.223a.58.58 0 0 1-.336-.612z" class="C"/><path d="M114.276 80.282c0 .567.4.795.894.51a1.97 1.97 0 0 0 .894-1.542c0-.567-.4-.795-.894-.51a1.97 1.97 0 0 0-.894 1.542z" class="B"/><path d="M113.811 84.004a1.97 1.97 0 0 1 .894-1.542.62.62 0 0 1 .646-.056l.479.26-.175.3v.05a1.97 1.97 0 0 1-.895 1.542l-.068.036-.145.244-.4-.222a.58.58 0 0 1-.336-.612z" class="C"/><path d="M114.276 84.257c0 .567.4.795.894.51a1.97 1.97 0 0 0 .898-1.541c0-.567-.4-.795-.894-.51a1.97 1.97 0 0 0-.898 1.541z" class="B"/><path d="M116.811 74.326a1.97 1.97 0 0 1 .894-1.542c.188-.138.437-.159.646-.055l.479.26-.175.3v.05a1.97 1.97 0 0 1-.894 1.542l-.068.036-.144.244-.4-.222a.58.58 0 0 1-.338-.613z" class="C"/><use xlink:href="#D" class="B"/><path d="M116.811 78.545a1.97 1.97 0 0 1 .894-1.542.62.62 0 0 1 .646-.055l.479.26-.175.3v.05a1.97 1.97 0 0 1-.894 1.542l-.068.036-.144.244-.4-.223a.58.58 0 0 1-.338-.612z" class="C"/><use xlink:href="#E" class="B"/><path d="M116.811 82.519a1.97 1.97 0 0 1 .894-1.542.62.62 0 0 1 .646-.056l.479.26-.175.3v.05a1.97 1.97 0 0 1-.894 1.542l-.068.036-.144.244-.4-.222a.58.58 0 0 1-.338-.612z" class="C"/><use xlink:href="#D" y="8.193" class="B"/><path d="M91.945 87.372a1.97 1.97 0 0 1 .894-1.542.62.62 0 0 1 .646-.056l.479.26-.175.3v.05a1.97 1.97 0 0 1-.894 1.542l-.069.036-.144.244-.4-.223a.58.58 0 0 1-.337-.611z" class="C"/><use xlink:href="#E" x="-24.869" y="8.823" class="B"/><path d="M91.945 91.592a1.97 1.97 0 0 1 .894-1.542.62.62 0 0 1 .646-.055l.479.26-.175.3v.05a1.97 1.97 0 0 1-.894 1.542.76.76 0 0 1-.069.036l-.144.244-.4-.223c-.237-.105-.375-.355-.337-.612z" class="C"/><use xlink:href="#E" x="-24.869" y="13.046" class="B"/><path d="M91.945 95.566a1.97 1.97 0 0 1 .894-1.542.62.62 0 0 1 .646-.055l.479.26-.175.3v.05a1.97 1.97 0 0 1-.894 1.542.76.76 0 0 1-.069.036l-.144.244-.4-.223a.58.58 0 0 1-.337-.612z" class="C"/><path d="M92.407 95.82c0 .567.4.794.894.509a1.97 1.97 0 0 0 .895-1.542c0-.567-.4-.795-.895-.51a1.97 1.97 0 0 0-.894 1.543z" class="B"/><path d="M23.908 145.609L4.715 134.527c-2.6-1.5-4.714-5.536-4.714-9.008v-20.272c0-3.471 2.111-5.067 4.714-3.564l19.193 11.082c2.6 1.5 4.714 5.535 4.714 9.008v20.272c0 3.471-2.111 5.067-4.714 3.564z" class="D"/><path d="M23.908 112.765L4.714 101.683a3.19 3.19 0 0 0-2.737-.406 3.4 3.4 0 0 1 2.381.508l19.194 11.081c2.6 1.5 4.714 5.536 4.714 9.008v20.272c0 2.11-.781 3.52-1.977 3.97 1.394-.287 2.333-1.76 2.333-4.072v-20.272c0-3.472-2.111-7.505-4.714-9.007z" class="C"/><path d="M23.035 143.366l-17.9-10.334c-2.057-1.188-3.725-4.374-3.725-7.117v-19.157c0-2.742 1.668-4 3.725-2.816l17.9 10.335c2.057 1.187 3.725 4.374 3.725 7.116v19.157c0 2.743-1.667 4.004-3.725 2.816z" fill="#022652"/><ellipse cx="25.351" cy="14.342" rx="25.351" ry="14.342" transform="matrix(.601 -.799 .799 .601 26.027 62.897)" class="B"/><ellipse cx="25.351" cy="14.342" rx="25.351" ry="14.342" transform="matrix(.601 -.799 .799 .601 27.383 63.507)" class="E"/><path d="M35.951 63.089c0 4.565 1.641 7.8 4.365 9.466.091.056 12.327 7.011 12.42 7.063 3.415 1.908 5.43-.075 11-3.294 10.291-5.942 18.635-19.1 18.635-29.394 0-5.053 1.388-6.693-1.877-8.165-.247-.111-13.053-7.353-13.314-7.441-3.317-1.13-7.741-.435-12.6 2.37-10.286 5.945-18.629 19.105-18.629 29.395z" class="F"/><ellipse cx="25.351" cy="14.342" rx="25.351" ry="14.342" transform="matrix(.601 -.799 .799 .601 38.42 69.63)" class="B"/><ellipse cx="25.351" cy="14.342" rx="25.351" ry="14.342" transform="matrix(.601104 -.799171 .799171 .601104 39.679 70.429)" class="E"/><ellipse cx="21.545" cy="12.189" rx="21.545" ry="12.189" transform="matrix(.601104 -.799171 .799171 .601104 43.727 68.766)" class="C"/><path d="M76.102 40.289c3.452.979 5.64 4.114 5.64 9.026 0 8.95-7.255 20.394-16.2 25.562-3.63 2.1-6.981 2.836-9.683 2.38 2.837.8 6.527.154 10.564-2.177 8.95-5.167 16.206-16.611 16.206-25.561-.005-5.32-2.569-8.56-6.527-9.23z" class="D"/><path d="M60.656 61.493c-.092 1.001.357 1.976 1.179 2.556l2.241 1.273c.923.515 1.466-.02 2.972-.89 2.779-1.6 5.032-5.157 5.032-7.937 0-1.364.375-1.807-.507-2.2-.066-.03-2.412-1.351-2.482-1.375-1.173-.279-2.409-.047-3.4.64-2.78 1.6-5.035 5.154-5.035 7.933z" class="B"/><path d="M62.83 62.735c0 2.779 2.253 3.731 5.032 2.127s5.032-5.158 5.032-7.938-2.254-3.731-5.032-2.127-5.032 5.155-5.032 7.938z" class="E"/><use xlink:href="#C" x="-38.244" y="22.377" class="G"/><path d="M70.132 55.221c.599.469.921 1.208.857 1.966a8.25 8.25 0 0 1-3.977 6.273 3.72 3.72 0 0 1-2.307.59c.728.5 1.854.446 3.12-.285a8.25 8.25 0 0 0 3.977-6.273c.155-1.085-.588-2.095-1.67-2.271z" class="F"/><path d="M180.67 39.164l1.971 1.138a3.86 3.86 0 0 1 1.5 1.479 4.25 4.25 0 0 1 .5 2.09v.963q0 1.187-.5 1.514-.5.327-1.5-.249l-.633-.365v3.98l-1.339-.773zm1.971 5.537q.329.19.493.075c.109-.076.164-.282.164-.617V43a1.7 1.7 0 0 0-.164-.807c-.114-.208-.285-.379-.493-.494l-.633-.365v3zm2.726-2.823l1.983 1.146c.62.332 1.141.823 1.509 1.423a3.89 3.89 0 0 1 .474 1.97v.6q0 1.522-.876 1.421v.028a2.45 2.45 0 0 1 .687 1.081c.143.487.21.993.2 1.5v1.722l.024.691a2.76 2.76 0 0 0 .122.58l-1.363-.787a3.55 3.55 0 0 1-.1-.5c-.016-.15-.024-.405-.024-.769v-1.788a2.37 2.37 0 0 0-.189-1.044c-.149-.273-.376-.496-.651-.641l-.463-.267v4.189l-1.339-.773zm1.825 5.244c.268.155.469.192.6.111s.2-.308.2-.681v-.753a1.96 1.96 0 0 0-.164-.863c-.115-.227-.295-.413-.518-.536l-.608-.351v2.793zm3.079-2.412l3.651 2.108v1.4l-2.313-1.335v2.584l1.838 1.06v1.4l-1.838-1.061v3l2.313 1.335v1.4l-3.651-2.108zm4.71 11.999c-.342-.65-.514-1.376-.5-2.111v-.558l1.265.731v.671a1.43 1.43 0 0 0 .694 1.35q.34.2.517.068.177-.132.177-.645c-.002-.42-.085-.835-.244-1.223a10.83 10.83 0 0 0-.9-1.644 13.06 13.06 0 0 1-1.156-2.183c-.213-.548-.325-1.13-.329-1.718q0-1.159.512-1.5.512-.341 1.485.222a3.71 3.71 0 0 1 1.454 1.475 4.4 4.4 0 0 1 .492 2.107v.405l-1.265-.731v-.5a1.8 1.8 0 0 0-.171-.831 1.25 1.25 0 0 0-.5-.518q-.67-.387-.669.549a2.98 2.98 0 0 0 .249 1.136 11.49 11.49 0 0 0 .906 1.641 12.09 12.09 0 0 1 1.156 2.19 5.18 5.18 0 0 1 .316 1.788q0 1.2-.517 1.544-.517.344-1.5-.225a3.76 3.76 0 0 1-1.472-1.49zm4.527 2.613a4.38 4.38 0 0 1-.5-2.111v-.558l1.266.731v.671a1.43 1.43 0 0 0 .693 1.35q.341.2.518.068.177-.132.177-.645c-.002-.42-.085-.835-.244-1.223a10.93 10.93 0 0 0-.9-1.645 12.96 12.96 0 0 1-1.156-2.183c-.213-.548-.325-1.13-.329-1.718q0-1.159.512-1.5.512-.341 1.484.222a3.71 3.71 0 0 1 1.454 1.475 4.39 4.39 0 0 1 .493 2.107v.405l-1.266-.731v-.5a1.8 1.8 0 0 0-.17-.831 1.25 1.25 0 0 0-.5-.518q-.67-.387-.67.549a2.98 2.98 0 0 0 .249 1.136c.257.571.56 1.119.906 1.641a12.15 12.15 0 0 1 1.157 2.189 5.19 5.19 0 0 1 .316 1.789q0 1.2-.518 1.544-.518.344-1.5-.225c-.621-.348-1.132-.864-1.472-1.489zm6.207-5.698l1.984 1.145c.62.332 1.141.823 1.509 1.423a3.89 3.89 0 0 1 .474 1.97v.6q0 1.522-.876 1.421v.028a2.45 2.45 0 0 1 .688 1.082c.143.487.211.993.2 1.5v1.717l.025.692a2.76 2.76 0 0 0 .121.579l-1.362-.786a3.58 3.58 0 0 1-.1-.5q-.024-.223-.024-.768v-1.788c.017-.358-.048-.715-.189-1.044-.149-.273-.376-.497-.651-.642l-.463-.267v4.19l-1.339-.773zm1.825 5.243q.4.232.6.111.2-.121.2-.68v-.754a1.94 1.94 0 0 0-.164-.863 1.25 1.25 0 0 0-.518-.536l-.608-.352v2.793zm3.08-2.41l3.651 2.108v1.4l-2.312-1.334v2.576l1.838 1.06v1.4l-1.838-1.061v3l2.312 1.334v1.4l-3.651-2.108zm4.416 2.551l1.339.773v8.379l2.2 1.272v1.4l-3.541-2.045zm4.187 2.417l3.651 2.107v1.4l-2.313-1.335v2.583l1.838 1.061v1.4l-1.838-1.061v3l2.313 1.335v1.4l-3.651-2.107zm5.452 3.148l1.814 1.047 1.387 10.576-1.339-.773-.244-2.082v.029l-1.52-.879-.244 1.772-1.241-.716zm1.46 7.379l-.6-5.176-.025-.014-.583 4.495zm2.617 4.254c-.342-.65-.514-1.376-.5-2.111v-.558l1.265.731v.671a1.43 1.43 0 0 0 .694 1.35q.34.2.517.069.177-.131.177-.645c-.002-.42-.085-.835-.244-1.223a10.89 10.89 0 0 0-.9-1.645 13.02 13.02 0 0 1-1.156-2.183c-.213-.548-.325-1.13-.329-1.718q0-1.159.512-1.5.512-.341 1.485.221a3.71 3.71 0 0 1 1.454 1.475 4.39 4.39 0 0 1 .493 2.107v.405l-1.266-.731v-.5a1.8 1.8 0 0 0-.17-.831 1.25 1.25 0 0 0-.5-.518q-.67-.387-.67.549a3 3 0 0 0 .249 1.136 11.51 11.51 0 0 0 .907 1.64c.459.688.846 1.422 1.156 2.189a5.19 5.19 0 0 1 .316 1.789q0 1.2-.518 1.544-.518.344-1.5-.225a3.77 3.77 0 0 1-1.472-1.488zm4.259-6.821l3.651 2.108v1.4l-2.312-1.335v2.583l1.838 1.061v1.4l-1.838-1.061v3l2.312 1.335v1.4l-3.651-2.108z" class="I"/><path d="M285.391 188.452l-.038-.3c-.828-6.494-3.771-11.457-3.771-17.547v-7.3l-10.4-6-5.591 3.329s7.688 14.727 6.835 20.341c.131 2.338 1.369 4.474 3.333 5.749l.091.052.964 8.179 7.337-4.24a2.17 2.17 0 0 0 1.24-2.263z" class="F"/><path d="M273.94 195.041l-6.295-3.635c-1.964-1.275-3.202-3.411-3.333-5.749h0a117.99 117.99 0 0 0 1.283-17.725v-7.3l10.4 6v7.3c.015 6.322.431 12.637 1.244 18.906l.039.3c0 2.114-1.5 2.966-3.338 1.903z" class="G"/><path d="M277.512 192.699a149.73 149.73 0 0 1-1.244-18.9v-7.3l-10.4-6v.526l9.845 5.683v7.3c.015 6.32.43 12.633 1.243 18.9l.039.3a2.33 2.33 0 0 1-.945 2.119c.9-.164 1.5-.993 1.5-2.326z" class="D"/><path d="M272.522 173.079l-.889 7.212 1.939-1.119v-6.726z" class="K"/><path d="M272.527 173.079l-.889 7.212-3.8-2.145.889-7.249z" class="F"/><path d="M268.73 170.897l3.8 2.182 1.044-.633-3.806-2.169z" class="D"/><path d="M300.871 146.765c0 4.2-1.45 7.181-3.809 8.622l-12.389 7.3c-2.453 1.372-.885-1.741-4.61-3.892-7.5-4.33-13.579-14.816-13.579-23.422 0-4.255-3.934-4.289-1.525-5.711l12.854-7.364c2.447-1.325 5.791-1.081 9.479 1.048 7.5 4.327 13.579 14.813 13.579 23.419z" class="F"/><path d="M275.214 130.423c-3.595-2.076-6.861-2.356-9.29-1.141 2.264-.633 5.074-.161 8.117 1.6 7.5 4.33 13.579 14.816 13.579 23.422 0 4.48-1.651 7.563-4.289 8.883 3.316-.928 5.462-4.226 5.462-9.339 0-8.609-6.08-19.095-13.579-23.425z" class="D"/><ellipse cx="11.052" cy="19.144" rx="11.052" ry="19.144" transform="matrix(.863299 -.504693 .504693 .863299 255.359 135.381)" class="G"/><path d="M286.036 155.047c0 4.084-1.41 6.976-3.7 8.376l-5.212 3.026a69.34 69.34 0 0 0-28.753 32l-.027.06c-4.029 2.253-36.322-51.886-32.366-54.219h.016a70.57 70.57 0 0 0 40.62-8.986l7.023-4.029c2.378-1.288 5.627-1.05 9.209 1.018 7.284 4.207 13.19 14.394 13.19 22.754z" class="E"/><path d="M251.47 187.765c0 7.317-2.525 12.5-6.63 15.009-.123.075-3.944 2.5-4.07 2.57-4.27 2.388-1.54-3.031-8.026-6.775-13.054-7.537-23.636-25.79-23.636-40.769 0-7.407-6.848-7.467-2.654-9.94.117-.069 4.76-2.622 4.879-2.687 4.259-2.306 10.081-1.882 16.5 1.825 13.055 7.535 23.637 25.787 23.637 40.767z" class="G"/><path d="M223.864 149.156c-6.258-3.612-12.733-3.371-15.732-1.953 3.941-1.1 9.513-.435 14.811 2.623 13.054 7.537 23.636 25.79 23.636 40.769 0 7.8-3.553 13.322-8.146 15.618 4.818-1.782 9.067-7.387 9.067-16.288 0-14.979-10.582-33.232-23.636-40.769z" class="C"/><ellipse cx="19.238" cy="33.323" rx="19.238" ry="33.323" transform="matrix(.863 -.505 .505 .863 189.743 157.82)" class="D"/><ellipse cx="17.985" cy="31.153" rx="17.985" ry="31.153" transform="matrix(.863 -.505 .505 .863 191.92 159.061)" class="J"/><path d="M227.515 200.412c-12.2-7.046-22.1-24.11-22.1-38.114 0-6.456 2.106-11.128 5.567-13.605-5.973 1.091-9.913 6.592-9.913 15.428 0 14 9.893 31.068 22.1 38.114 6.578 3.8 12.481 3.9 16.529 1.007-3.493.637-7.676-.229-12.183-2.83z" class="G"/><path d="M235.56 163.035l-10.776 8.815c-.666.392.422.4.422 1.58.148 2.634 1.542 5.04 3.755 6.477 1.031.6.6 1.456 1.275 1.077.018-.01 9.783-3.74 12.439-4.759-1.741-4.709-4.136-9.149-7.115-13.19z" class="F"/><path d="M231.195 178.629c0 2.38-1.681 3.339-3.755 2.141-2.213-1.437-3.608-3.843-3.756-6.478 0-2.38 1.682-3.339 3.756-2.141 2.213 1.437 3.608 3.843 3.755 6.478z" class="D"/><path d="M230.02 177.951c0 1.635-1.155 2.294-2.58 1.471-1.521-.987-2.479-2.641-2.581-4.451 0-1.635 1.155-2.294 2.581-1.471 1.52.988 2.479 2.641 2.58 4.451z" class="F"/><path d="M227.621 172.061c-.748-.534-1.715-.652-2.57-.316.777-.16 1.586-.001 2.245.442 2.213 1.437 3.608 3.843 3.756 6.478.112.979-.35 1.936-1.186 2.457.917-.256 1.51-1.169 1.51-2.583-.147-2.635-1.542-5.041-3.755-6.478z" style="mix-blend-mode:screen" class="C"/></svg>